<?xml version="1.0" encoding="UTF-8"?><svg id="OBJECTS" xmlns="http://www.w3.org/2000/svg" baseProfile="tiny" version="1.2" viewBox="0 0 59.3136 57.5673"><path d="M59.3136,24.7785c0-6.5266-5.2909-11.8175-11.8174-11.8175-2.3673,0-4.5703.6989-6.4189,1.8976.2578-.9706.3969-1.9895.3969-3.0412,0-6.5266-5.2907-11.8174-11.8173-11.8174s-11.8174,5.2908-11.8174,11.8174c0,1.0517.1391,2.0706.3969,3.0412-1.8486-1.1987-4.0516-1.8976-6.4189-1.8976C5.2909,12.961,0,18.2519,0,24.7785c0,6.3131,4.9507,11.4694,11.1815,11.7999-2.6642,2.1668-4.3675,5.4697-4.3675,9.1715,0,6.5266,5.2909,11.8174,11.8175,11.8174,5.0266,0,9.3173-3.1398,11.0254-7.5639,1.7079,4.4241,5.9987,7.5639,11.0253,7.5639,6.5265,0,11.8174-5.2908,11.8174-11.8174,0-3.7018-1.7031-7.0047-4.3675-9.1715,6.2308-.3305,11.1815-5.4868,11.1815-11.7999Z" fill="#e7b83f"/><g><path d="M31.3945,19.9355c0,3.4318-1.7377,6.2138-1.7377,6.2138,0,0-1.7378-2.782-1.7378-6.2138s1.7378-6.2138,1.7378-6.2138c0,0,1.7377,2.782,1.7377,6.2138Z" fill="#ea402b"/><path d="M20.1296,25.595c3.2638,1.0604,5.3727,3.5728,5.3727,3.5728,0,0-3.1829.7931-6.4467-.2674s-5.3727-3.5729-5.3727-3.5729c0,0,3.1828-.793,6.4467.2675Z" fill="#ea402b"/><path d="M22.031,38.0575c2.0171-2.7764,5.0582-4.0057,5.0582-4.0057,0,0-.2293,3.2721-2.2465,6.0485-2.0171,2.7764-5.0582,4.0057-5.0582,4.0057,0,0,.2293-3.2722,2.2465-6.0485Z" fill="#ea402b"/><path d="M34.4711,40.1002c-2.0172-2.7763-2.2465-6.0485-2.2465-6.0485,0,0,3.0411,1.2293,5.0582,4.0057,2.0172,2.7764,2.2466,6.0485,2.2466,6.0485,0,0-3.0412-1.2293-5.0583-4.0057Z" fill="#ea402b"/><path d="M40.2581,28.9002c-3.2638,1.0605-6.4467.2675-6.4467.2675,0,0,2.1089-2.5124,5.3727-3.5729,3.2638-1.0605,6.4467-.2674,6.4467-.2674,0,0-2.1089,2.5124-5.3727,3.5728Z" fill="#ea402b"/></g></svg>
