<?xml version="1.0" encoding="UTF-8"?><svg id="a" xmlns="http://www.w3.org/2000/svg" viewBox="0 0 1628.63 1435.31"><path d="M773.57,48.53c5.15-5.52,11.68-10.75,19.24-10.63,12.75.2,8.13,16.21,18.13,14.01,6.48-1.42,13.67,3.3,14.94,9.82,3.58-6.79,12.21-10.45,19.58-8.29,7.37,2.16,12.66,9.91,12,17.55,5.67-2.99,11.62-6.05,18.03-6.05,6.41,0,13.3,4.19,14.02,10.56.55,4.89-2.52,9.39-5.59,13.23,9.21-6.45,24.24,3.41,21.99,14.42,2.28-9.36,7.45-20.96,17.06-20.17,5.88.48,10.29,6.07,11.41,11.86,1.13,5.79-.29,11.73-1.69,17.45,6.79-5.84,14.3-11.98,23.25-12.39,8.95-.4,18.51,8.41,15.2,16.73-1.24,3.1-3.89,5.37-6.46,7.5-4.74,3.96-9.49,7.92-14.23,11.89,7.9-2.36,17.15.83,21.91,7.57,6.51,9.22,2.45,15.77-2.23,23.93,9.94-1.35,19.38,9.58,16.6,19.22,7.54-1.56,15.84,1.52,20.53,7.62,4.69,6.1,5.52,14.92,2.07,21.8,3.74-8.48,17.69-6.81,22.69,1.01,4.99,7.81,3.56,18,1.26,26.99,5.52-9.17,20.05-11.12,27.69-3.61,7.63,7.5,5.86,22.2-3.41,27.56,9.16-3.81,21.52-1.15,25.88,7.77,4.24,8.67-2.9,18.5-11.59,19.95,4.28,7.1,13.58,14.88,6.02,24.37,7.59-1.89,16.19,1.36,20.63,7.8,4.44,6.44,4.42,15.64-.05,22.06,8.78-3.08,19.67-2.25,25.96,4.62,6.29,6.87,4.67,20.19-4.15,23.21,8.82.32,18.1.78,25.6,5.43,2.35,1.46,4.56,3.43,5.44,6.06,1.43,4.28-1.16,9.07-4.88,11.61-3.72,2.55-8.32,3.36-12.76,4.12,6.47,1.54,13.37,4.4,16.19,10.43,4.11,8.8-7.1,13.84-12.53,18.41,8.25-5.05,18.84-6.08,27.9-2.71,3.32,1.24,6.72,3.39,7.61,6.82,1.12,4.31-2.26,8.55-6.03,10.92-3.77,2.37-8.2,3.79-11.39,6.9,5.19.4,9.53,3.76,12.14,8.2,3.26,5.55,3.84,12.78.03,18.07,6.65-4.85,17.32-2.84,21.49,4.25,4.17,7.09.47,17.63-7.32,20.28,5.81-2.51,11.81-5.06,18.13-5.14,6.32-.07,13.13,2.97,15.55,8.81,2.18,5.25.29,11.49-3.27,15.92-3.56,4.43-8.56,7.44-13.44,10.35,9.86,1.26,18.93,7.6,23.5,16.43.86,1.65,1.58,3.48,1.38,5.33-.83,7.77-14.81,7.55-20.32,8.69,8.83,3.31,12.09,16.27,5.88,23.37,7.17-.31,14.37,3.73,17.82,10.03,3.46,6.3,3.01,14.54-1.11,20.42,3.25-4.35,10.94-2.45,13.45,2.36,2.51,4.81,1.09,10.79-1.52,15.56,7.98-3.2,17.9-.65,23.35,5.99,1.76,2.15,3.11,4.77,3.17,7.54.09,4.49-3.26,8.48-7.26,10.51-4.45,2.25-9.88,2.52-14.48,3.23.25,1.55,1.33,1.87,2.85,2.26,7.22,1.86,9.14,13.38,2.92,17.48,6.25-1.2,13.09,1.95,16.24,7.47,3.16,5.52,2.41,13.01-1.79,17.79,5.01-2.64,10.3-5.34,15.96-5.18,5.66.17,11.62,4.35,11.63,10.01,0,2.31-.96,4.51-2.06,6.54-2.89,5.33-6.89,10.07-11.66,13.82,5.99.95,11.82,2.87,17.21,5.66,4.68,2.42,9.26,5.82,11.05,10.78,1.92,5.37-.2,11.91-4.92,15.12-4.37,2.97-10.16.09-12.39,4.29-2.25,4.24,4.28,10.03-.91,15.67,6.87-.88,14.09,3.13,16.96,9.44,2.87,6.3,1.16,14.39-4.01,18.99,6.49-.9,13.35,3.05,15.82,9.13,2.47,6.08.32,13.7-4.96,17.58,7.86,0,14.08,9.4,11.02,16.64,7.62-3,18.31-5,22.25,2.18,2.22,4.04.79,9.17-1.66,13.07-2.46,3.9-5.87,7.17-8.06,11.23,5.52,1.19,10.69,5.76,10.78,11.4.11,6.49-7,9.89-12.36,7.67,2.16,5.66,11.66,13.29,4.21,19.39,5.68.84,10.76,4.87,12.87,10.21,2.11,5.33,1.15,11.76-2.42,16.25,5.36-3.56,13.45.08,15.6,6.15,2.15,6.07-.74,13.11-5.68,17.25,7.57-.71,16.89-.57,20.63,6.06,2.46,4.36,1.24,10.04-1.67,14.11-2.9,4.07-7.22,6.88-11.42,9.59,6.15,3.6,13.18,8.91,12.16,15.96-.98,6.71-4.77,11.12-8.33,16.65,4.83-1.75,10.78.63,13.07,5.22,2.29,4.59.61,10.78-3.69,13.58,7.28-3.06,17.58-5.22,21.5,1.65,4.15,7.3-4.1,15.25-11.28,19.61,5.01,3.13,10.14,6.36,13.69,11.09,3.54,4.73,5.18,11.36,2.52,16.63-2.67,5.27-10.51,7.69-14.84,3.67,3.43,5.35,6.92,10.82,8.5,16.98,1.58,6.16.95,13.24-3.19,18.07,6.36,3.76,10.5,11.01,10.51,18.4,0,7.39-4.12,14.64-10.48,18.41,7.92-.83,14.08,8.45,12.57,16.27-1.51,7.82-8.23,13.63-15.34,17.2,7.42,3.64,9.34,14.19,5.62,21.57-3.73,7.38-11.49,11.9-19.36,14.43,7.11-2.28,6.52,20.07,5.16,22.97-2.82,5.96-13.8,16.61-20.77,12.15,3.26,6.14,1.79,14.42-3.38,19.07-5.17,4.65-13.56,5.22-19.32,1.32,1.58,6.41-.88,13.64-6.05,17.75-5.17,4.11-12.77,4.88-18.66,1.89-.02,5.43-.07,10.98-1.97,16.07-1.9,5.08-6.06,9.68-11.42,10.52-8,1.25-14.66-5.75-19.72-12.09.01,6.97-3.24,12.09-7.98,15.37,17.16,12.74,45.6,9.28,57.51-9.08,7.83,9.84,21.29,14.86,33.65,12.55,12.37-2.31,23.1-11.85,26.85-23.86,2.4,11.36,18.87,14.28,28.47,7.73,9.6-6.54,13.82-18.37,17.46-29.4-3.12,9.44,23.69,25.78,30.94,25.83,15.23.09,24.62-16.78,11.22-27.79,13.6,3.37,31-3.7,30.18-19.83,5.35,6.08,12.35,12.76,20.28,11.12,5.31-1.1,9.24-5.89,10.89-11.06,1.65-5.17,1.42-10.73,1.18-16.15,6.03,2.7,13.58,1.56,18.54-2.8,4.96-4.36,7.07-11.7,5.17-18.02,5.94,3.62,14.29,2.64,19.23-2.26,4.95-4.89,6.01-13.23,2.46-19.21,7.17,4.11,17.63-7.06,20.15-13.15,1.22-2.96.73-25.32-6.27-22.69,7.74-2.91,15.27-7.8,18.64-15.35,3.36-7.55.93-17.99-6.66-21.27,6.93-3.91,13.36-10.04,14.48-17.92,1.13-7.88-5.48-16.85-13.35-15.63,6.16-4.08,9.93-11.53,9.57-18.9-.37-7.38-4.86-14.42-11.4-17.86,3.9-5.03,4.19-12.13,2.31-18.2-1.88-6.08-5.63-11.37-9.32-16.55,4.52,3.81,12.24,1.01,14.65-4.39,2.41-5.39.44-11.93-3.33-16.48-3.77-4.55-9.05-7.53-14.21-10.41,6.95-4.7,14.81-13.05,10.3-20.14-4.23-6.67-14.42-4.01-21.54-.6,4.16-3.01,5.54-9.27,3.03-13.74-2.51-4.48-8.58-6.56-13.31-4.58,3.28-5.7,6.85-10.28,7.51-17.03.68-7.09-6.6-12.06-12.92-15.35,4.07-2.91,8.23-5.92,10.94-10.13,2.71-4.21,3.65-9.95.98-14.18-4.06-6.43-13.38-6.12-20.91-5.04,4.73-4.38,7.27-11.54,4.83-17.5-2.44-5.96-10.69-9.21-15.88-5.39,3.35-4.66,3.99-11.12,1.63-16.34-2.36-5.23-7.64-9.01-13.35-9.57,7.14-6.46-2.72-13.61-5.15-19.16,5.46,1.96,12.38-1.79,11.97-8.26-.37-5.63-5.75-9.94-11.32-10.87,1.99-4.16,5.24-7.59,7.5-11.61s3.43-9.21,1.02-13.14c-4.27-6.98-14.86-4.46-22.32-1.09,2.71-7.38-3.96-16.46-11.81-16.09,5.09-4.14,6.86-11.85,4.1-17.8-2.76-5.95-9.8-9.56-16.24-8.35,4.95-4.85,6.26-13.01,3.08-19.16-3.17-6.16-10.58-9.82-17.4-8.6,4.91-5.89-1.9-11.36.15-15.7,2.03-4.31,7.96-1.72,12.17-4.89,4.56-3.43,6.36-10.08,4.18-15.34-2.02-4.86-6.77-8.03-11.56-10.22-5.52-2.53-11.44-4.16-17.47-4.81,4.58-3.98,8.34-8.9,10.97-14.37,1-2.08,1.86-4.33,1.74-6.64-.28-5.65-6.44-9.54-12.1-9.43-5.66.11-10.82,3.07-15.69,5.94,3.96-4.98,4.35-12.49.92-17.85-3.42-5.36-10.41-8.17-16.59-6.67,6.02-4.4,3.54-15.82-3.76-17.32-1.53-.31-2.63-.58-2.96-2.12,4.57-.93,9.98-1.47,14.31-3.93,3.9-2.22,7.05-6.37,6.74-10.85-.19-2.77-1.66-5.32-3.53-7.38-5.77-6.37-15.8-8.43-23.62-4.85,2.37-4.89,3.5-10.93.76-15.62-2.75-4.69-10.51-6.2-13.55-1.7,3.83-6.08,3.87-14.33.11-20.45-3.76-6.12-11.14-9.81-18.29-9.15,5.86-7.39,1.97-20.18-7.01-23.05,5.45-1.4,19.42-1.86,19.87-9.67.11-1.86-.7-3.64-1.64-5.25-5-8.59-14.37-14.49-24.28-15.27,4.74-3.15,9.58-6.39,12.93-10.99,3.34-4.6,4.93-10.92,2.49-16.07-2.7-5.72-9.64-8.42-15.96-8.04-6.31.38-12.18,3.22-17.86,6.01,7.65-3.03,10.83-13.74,6.32-20.62-4.51-6.88-15.27-8.37-21.67-3.2,3.55-5.46,2.62-12.66-.91-18.04-2.83-4.3-7.32-7.45-12.53-7.6,3.03-3.26,7.39-4.89,11.04-7.44,3.65-2.55,6.82-6.95,5.5-11.2-1.05-3.38-4.56-5.36-7.94-6.44-9.21-2.93-19.74-1.38-27.73,4.06,5.2-4.82,16.15-10.41,11.61-18.99-3.1-5.88-10.14-8.4-16.68-9.63,4.4-.97,8.96-2.01,12.56-4.74,3.59-2.72,5.94-7.64,4.31-11.84-1.01-2.58-3.3-4.44-5.72-5.79-7.72-4.28-17-4.29-25.83-4.18,8.66-3.44,9.63-16.83,3.01-23.38-6.62-6.55-17.53-6.86-26.16-3.35,4.15-6.63,3.73-15.82-1.02-22.04-4.75-6.22-13.5-9.05-20.99-6.79,7.08-9.84-2.58-17.16-7.2-24.04,8.61-1.87,15.26-12.03,10.6-20.49-4.79-8.69-17.26-10.75-26.23-6.5,9-5.8,10.06-20.57,2.06-27.69-7.99-7.12-22.42-4.48-27.48,4.96,1.85-9.09,2.8-19.34-2.58-26.89-5.37-7.56-19.39-8.56-22.71.1,3.11-7.04,1.85-15.8-3.13-21.67-4.98-5.87-13.42-8.54-20.87-6.62,2.31-9.77-7.65-20.22-17.52-18.39,4.28-8.38,8.02-15.12,1.07-24.01-5.08-6.5-14.47-9.24-22.25-6.49,4.55-4.19,9.09-8.38,13.64-12.56,2.46-2.26,5-4.66,6.08-7.81,2.91-8.47-7.07-16.81-15.99-15.97-8.92.84-16.12,7.34-22.62,13.5,1.13-5.79,2.25-11.79.84-17.51-1.4-5.72-6.09-11.09-11.98-11.29-9.63-.32-14.23,11.52-16.05,20.98,1.71-11.11-13.78-20.23-22.67-13.34,2.88-3.99,5.73-8.63,4.94-13.48-1.03-6.32-8.12-10.17-14.51-9.86-6.4.31-12.2,3.66-17.71,6.92.29-7.67-5.38-15.15-12.84-16.95-7.46-1.8-15.92,2.27-19.16,9.23-1.58-6.45-8.99-10.82-15.4-9.08-9.89,2.68-6.05-13.53-18.8-13.12-7.56.26-13.83,5.79-18.7,11.56,5.79-8.94,4.53-28.26-8.77-26.16-6.96,1.1-23.14,18.09-20.23,26.09-2.61-7.2-.71-17.01-7.19-21.1-5.14-3.25-12.37.22-15.29,5.56s-2.73,11.76-2.46,17.84c-6.08-7.53-16.02-11.74-25.66-10.89-9.64.86-18.68,6.76-23.34,15.24-13.37-12.3-33.09-9.66-45.31,2.37-4.61-4.39-9.93-9.05-16.25-9.07,3.39,7.04,2.99,15.94-1.61,22.33Z" style="fill:#f6e8d6;"/><path d="M1254.15,1361.09c1.08-.76,2.1-1.59,3.12-2.43-2.44-.21-4.84-.71-7.09-1.56,1.67.98,2.94,2.4,3.96,3.99Z" style="fill:#f6e8d6;"/><path d="M471.09,1390.63c-3.41,5.55,10.86,18.17,16.15,17.42.48-.07.83-.28,1.26-.4-7.29-4.68-12.97-10.42-17.41-17.02Z" style="fill:#fbf1e5;"/><path d="M220.46,1330.98c-.34,7.1,2.75,14.54,9.52,17.74,6.66,3.14,15.35,1.11,19.93-4.65.03,6,4.3,11.74,10.04,13.49,5.73,1.76,12.48-.61,15.87-5.56,1.82,4.78-.3,10.04-1.45,15.03-1.15,4.99-.58,11.45,4.1,13.52,4.76,2.11,9.97-1.97,12.99-6.21,3.03-4.24,5.88-9.39,10.94-10.65.89,6.67,2.8,13.2,5.64,19.29,1.85,3.96,4.6,8.11,8.89,8.92,5.18.98,9.96-3.57,11.78-8.52,1.93-5.25,2-11.12,3.62-16.37,6.97,5.39,18.56,10.08,25.71,1.33,2.43,8.91,10.29,16.09,19.39,17.72,9.09,1.62,18.95-2.4,24.32-9.92,5.21,13.58,25.52,18.14,36.03,8.09,5.12,4.24,4.84,12.86,10.15,16.85,3.82,2.87,9.43,2.21,13.5-.29,4.02-2.46,6.88-6.37,9.63-10.2-11.95-17.83-15.02-41.9-17.37-68.29-13.39-150.21,13.78-300.68,40.87-449.46,2.08-11.43,4.97-24.08,15.63-30.86,7.15-4.55,16.39-5.46,25.17-6.22,133.86-11.6,265.21-8.66,398.14,11.33,23.47,3.53,25.4,24.38,23.13,44.48-10.15,89.51-18.21,179.26-24.18,269.15-3.39,51.01-6.08,102.46-.52,153.42,2.6,23.85,5.37,51.06,15.57,73,1.85,3.97,4.86,8.72,6.81,13.54,2.54-2.78,4.91-5.68,6.92-7.54-.02,7.92,2.17,18.39,10.07,18.93,9.82.67,13.74-15.55,23.57-15.91-2.3,7.64-2.29,15.96.03,23.59.47,1.55,1.1,3.16,2.38,4.15,3.26,2.5,7.81-.48,10.67-3.43,5.77-5.91,11.12-12.23,16.01-18.89.94,4.82,1.94,9.82,4.85,13.78,2.9,3.96,8.28,6.57,12.83,4.73,4.46-1.8,6.5-7.01,7.05-11.8.54-4.78.1-9.76,1.75-14.29,6.9,6.28,18.92,5.67,25.15-1.29-1.49,7.02,6.49,13.39,13.57,12.27,7.08-1.12,12.36-7.45,14.77-14.2,3.18,6.45,10.77,10.4,17.88,9.32,7.1-1.08,13.17-7.11,14.29-14.21-1.95,12.39,24.79-4.23,25.55-4.84,3.1,6.38,10.96,10.03,17.83,8.27,6.87-1.75,12.02-8.72,11.68-15.81,3.32,3.23,3.73,8.3,4.74,12.82,1.01,4.52,3.74,9.56,8.37,9.86,3.16.2,5.96-1.96,8.12-4.27,5.35-5.72,8.86-13.14,9.89-20.91,7.82,6.88,18.46,14.2,27.75,9.49,7.12-3.61,8.12-13.21,4.1-19.43-1.02-1.59-2.29-3.01-3.96-3.99,2.25.85,4.65,1.35,7.09,1.56,5.97.51,12.13-.89,16.84-4.14,4.74-3.28,7.99-8.4,7.98-15.37,5.05,6.34,11.71,13.34,19.72,12.09,5.36-.84,9.52-5.44,11.42-10.52,1.9-5.09,1.94-10.65,1.97-16.07,5.89,2.99,13.49,2.22,18.66-1.89,5.17-4.11,7.63-11.34,6.05-17.75,5.76,3.9,14.15,3.33,19.32-1.32,5.17-4.65,6.64-12.93,3.38-19.07,6.97,4.46,17.95-6.19,20.77-12.15,1.36-2.89,1.95-25.25-5.16-22.97,7.87-2.53,15.63-7.05,19.36-14.43,3.73-7.38,1.8-17.92-5.62-21.57,7.11-3.57,13.83-9.38,15.34-17.2,1.51-7.82-4.65-17.09-12.57-16.27,6.35-3.77,10.48-11.03,10.48-18.41,0-7.39-4.15-14.64-10.51-18.4,4.14-4.83,4.76-11.91,3.19-18.07-1.57-6.16-5.06-11.63-8.5-16.98,4.33,4.02,12.18,1.6,14.84-3.67,2.67-5.27,1.02-11.9-2.52-16.63-3.54-4.73-8.67-7.96-13.69-11.09,7.18-4.36,15.43-12.32,11.28-19.61-3.91-6.86-14.21-4.71-21.5-1.65,4.3-2.8,5.98-8.99,3.69-13.58-2.29-4.59-8.24-6.97-13.07-5.22,3.56-5.53,7.35-9.94,8.33-16.65,1.03-7.05-6.01-12.36-12.16-15.96,4.2-2.71,8.52-5.52,11.42-9.59,2.91-4.07,4.13-9.76,1.67-14.11-3.74-6.62-13.06-6.77-20.63-6.06,4.94-4.14,7.82-11.17,5.68-17.25-2.14-6.07-10.23-9.72-15.6-6.15,3.57-4.49,4.53-10.91,2.42-16.25-2.1-5.33-7.19-9.37-12.87-10.21,7.44-6.1-2.06-13.73-4.21-19.39,5.36,2.22,12.46-1.18,12.36-7.67-.09-5.64-5.26-10.21-10.78-11.4,2.19-4.06,5.6-7.33,8.06-11.23,2.46-3.9,3.88-9.03,1.66-13.07-3.93-7.18-14.63-5.18-22.25-2.18,3.06-7.24-3.15-16.63-11.02-16.64,5.28-3.89,7.43-11.51,4.96-17.58-2.47-6.07-9.33-10.03-15.82-9.13,5.17-4.6,6.88-12.69,4.01-18.99-2.87-6.3-10.09-10.32-16.96-9.44,5.19-5.64-1.34-11.43.91-15.67,2.23-4.2,8.03-1.33,12.39-4.29,4.72-3.21,6.84-9.75,4.92-15.12-1.78-4.96-6.37-8.35-11.05-10.78-5.39-2.79-11.22-4.71-17.21-5.66,4.77-3.75,8.77-8.48,11.66-13.82,1.1-2.03,2.06-4.23,2.06-6.54,0-5.66-5.97-9.84-11.63-10.01-5.66-.17-10.95,2.54-15.96,5.18,4.19-4.78,4.95-12.27,1.79-17.79-3.16-5.52-10-8.67-16.24-7.47,6.23-4.1,4.3-15.62-2.92-17.48-1.51-.39-2.59-.71-2.85-2.26,4.6-.71,10.04-.98,14.48-3.23,4.01-2.03,7.35-6.02,7.26-10.51-.06-2.78-1.4-5.4-3.17-7.54-5.45-6.64-15.37-9.19-23.35-5.99,2.6-4.77,4.03-10.75,1.52-15.56-2.51-4.81-10.2-6.71-13.45-2.36,4.12-5.88,4.57-14.13,1.11-20.42-3.45-6.29-10.65-10.34-17.82-10.03,6.21-7.09,2.95-20.06-5.88-23.37,5.51-1.14,19.48-.91,20.32-8.69.2-1.85-.52-3.68-1.38-5.33-4.57-8.83-13.65-15.17-23.5-16.43,4.89-2.91,9.88-5.92,13.44-10.35,3.57-4.43,5.45-10.67,3.27-15.92-2.42-5.84-9.22-8.88-15.55-8.81-6.33.07-12.33,2.63-18.13,5.14,7.79-2.66,11.49-13.19,7.32-20.28-4.17-7.09-14.84-9.1-21.49-4.25,3.81-5.28,3.23-12.52-.03-18.07-2.62-4.44-6.95-7.8-12.14-8.2,3.18-3.11,7.62-4.53,11.39-6.9,3.77-2.37,7.15-6.6,6.03-10.92-.89-3.43-4.29-5.58-7.61-6.82-9.06-3.37-19.65-2.34-27.9,2.71,5.43-4.57,16.63-9.61,12.53-18.41-2.81-6.02-9.72-8.89-16.19-10.43,4.44-.76,9.04-1.58,12.76-4.12,3.72-2.55,6.31-7.34,4.88-11.61-.88-2.63-3.08-4.6-5.44-6.06-7.5-4.65-16.77-5.11-25.6-5.43,8.81-3.02,10.44-16.34,4.15-23.21-6.29-6.87-17.18-7.71-25.96-4.62,4.47-6.42,4.49-15.62.05-22.06-4.44-6.44-13.04-9.7-20.63-7.8,7.56-9.49-1.74-17.27-6.02-24.37,8.69-1.45,15.83-11.28,11.59-19.95-4.36-8.92-16.71-11.58-25.88-7.77,9.27-5.36,11.04-20.06,3.41-27.56-7.64-7.5-22.18-5.56-27.69,3.61,2.3-8.99,3.73-19.18-1.26-26.99-5-7.81-18.95-9.49-22.69-1.01,3.45-6.88,2.62-15.7-2.07-21.8-4.69-6.1-12.99-9.19-20.53-7.62,2.78-9.64-6.65-20.57-16.6-19.22,4.68-8.16,8.75-14.71,2.23-23.93-4.76-6.74-14-9.93-21.91-7.57,4.75-3.96,9.49-7.92,14.23-11.89,2.56-2.14,5.22-4.4,6.46-7.5,3.32-8.32-6.25-17.14-15.2-16.73-8.94.4-16.46,6.55-23.25,12.39,1.4-5.72,2.82-11.67,1.69-17.45-1.12-5.79-5.53-11.38-11.41-11.86-9.6-.79-14.78,10.81-17.06,20.17,2.25-11.02-12.78-20.87-21.99-14.42,3.07-3.84,6.14-8.34,5.59-13.23-.72-6.36-7.61-10.55-14.02-10.56-6.41,0-12.36,3.06-18.03,6.05.66-7.65-4.63-15.39-12-17.55-7.37-2.16-16,1.5-19.58,8.29-1.27-6.52-8.45-11.24-14.94-9.82-10.01,2.19-5.38-13.81-18.13-14.01-7.56-.11-14.1,5.11-19.24,10.63,4.59-6.38,4.99-15.29,1.61-22.33-.86-1.79-1.91-3.5-3.27-4.97-14.34,2.19-26.72,13.98-29.6,28.21-1.04-7.24-3.56-14.27-7.36-20.53-.77-1.26-1.74-2.6-3.19-2.88-1.38-.26-2.73.53-3.85,1.37-8.68,6.47-13.21,18.06-11.23,28.7-2.79-8.82-13.01-14.54-21.99-12.3-8.97,2.24-15.31,12.1-13.62,21.2-14.29-6.73-33.61,5.33-33.85,21.12-9.55-1.52-17.18,5.1-21.75,12.56-2.55-3.16-4.41-6.73-6.44-10.33-.71-1.25-1.52-2.59-2.87-3.07-1.53-.54-3.2.21-4.57,1.06-8.76,5.43-13.94,16.11-12.79,26.35-4.13-4.16-8.4-8.42-13.8-10.72-5.4-2.3-12.25-2.18-16.52,1.84-2.91,2.75-4.17,6.81-4.78,10.77-1.45,9.28.07,19,4.28,27.4-15.99-.55-29.51,17.64-24.38,32.79-14.9-.07-28.74,12.66-29.9,27.52-8.59-2.51-15.25-1.09-20.1,6.63-1.07,1.7-4.35,20.66.12,19.15-7.93,2.67-17.62-3.24-24.6,1.36-4.12,2.71-5.51,8.32-4.62,13.17.88,4.85,3.6,9.14,6.25,13.3-7.37-.75-14.47,3.81-18.81,9.82-4.34,6.01-6.43,13.3-8.45,20.43-2.12-5.65-4.38-11.51-8.8-15.61-4.42-4.1-11.7-5.8-16.51-2.17-5.24,3.95-5.16,11.94-3.02,18.15,2.14,6.21,5.84,12.04,6.2,18.59-6.43-.8-13.07.18-18.99,2.82-3.23,1.44-6.67,4.18-6.2,7.68.29,2.14,1.98,3.79,3.63,5.17,5.63,4.71,12.02,8.49,18.86,11.16-12.66-.88-23.45,14.14-18.57,25.85-10.04-2.29-17.15.13-23.89,7.4-2.35,2.54-13.65,20.43-7.7,23.62-5.21-2.79-10.58-5.63-16.45-6.36-5.87-.74-12.44,1.09-15.75,5.99-3.76,5.55-2.28,13.16.73,19.15,3.01,5.99,7.39,11.33,9.48,17.7-4.68-1.93-10.49-.65-13.93,3.06-3.44,3.71-4.27,9.61-1.99,14.13-6.93.08-13.58-4.96-20.31-3.28-7.65,1.91-10.71,11.97-8.04,19.39,2.67,7.43,9.15,12.71,15.35,17.6-5.13,2.12-10.47,4.4-14.03,8.65-3.7,4.42-4.1,10.22-1.38,15.19-7.46,4.84-16.96,4.42-23.46,11.61-3.04,3.35-11.35,20.28-4.69,23.96-8.73-4.83-21.06-1.25-25.87,7.49-4.8,8.74-1.2,21.07,7.55,25.85-9.3,3.64-15.82,13.43-15.6,23.42-11.54.97-19.56,15.44-14.26,25.73-3.19-4.93-6.61-10.07-11.82-12.76-5.21-2.69-12.75-1.82-15.49,3.37-1.4,2.65-1.3,5.81-1,8.79.87,8.76,3.13,17.37,6.66,25.43-7.01-4.87-18.5-1.52-20.94,6.66-2.44,8.18,6.68,17.55,14.68,14.57-8.45,6.11-12.45,17.74-9.55,27.75-10.92,1.29-15.78,13.95-12.41,23.27-10.1-2.17-21.21-3.98-27.43,7.25-6.08,10.97-2.86,24.68,1.88,36.28-7.03-.6-13.16-5.08-20.07-6.52-6.91-1.44-16.15,2.72-15.23,9.72.37,2.83,2.34,5.15,4.23,7.3,6.52,7.4,13.04,14.81,19.57,22.21-9.01-.78-18.24,4.62-21.96,12.87-3.72,8.25-1.66,18.74,4.89,24.97-15.75-.52-27.89,19.61-20.08,33.3-25.61,2.49-42.78,35.24-30.26,57.72-6.66-4.61-12.93-11.07-21.03-11.4-12.36-.5-20.49,14.66-17.76,26.73,2.72,12.06,12.35,21.16,21.51,29.48-4.2-3.74-29,2.57-31.95,8.03-3.45,6.4-1.99,14.58,1.92,20.71,4.89,7.65,13.17,11.69,18.73,18.65-9.04,2.83-15.8,9.79-18.76,18.82-2.79,8.52-.45,18.48,1.71,26.74-11.76,4.31-12.62,24.14-1.29,29.45-6.68,2.65-13.82,5.66-17.64,11.76-3.82,6.09-1.95,16.11,5.05,17.76,5.36,1.27,11.84-2.54,16.09.97-9.26,6.62-19.13,14.11-22.06,25.1-2.92,11,6.12,25.23,17.17,22.52-2.72,7.31-9.41,12.23-14.9,17.78-5.49,5.55-10.23,13.48-7.6,20.83,2.08,5.81,8.34,9.3,14.48,9.92,6.14.63,12.26-1.05,18.21-2.72-4.57,7.35-9.32,15.83-7.02,24.17,2.29,8.34,15.96,12.27,19.32,4.3-.53,6.88-.32,14.27,3.56,19.97,5.14,7.56,12.15,4.63,19.76,3.47-2.4,6.21,0,13.93,5.51,17.68,5.51,3.75,13.57,3.16,18.47-1.35-.8,7.02-8.76,11.99-8.56,19.06.19,6.42,7.55,10.68,13.93,10.01,6.39-.67,11.85-4.72,16.95-8.63.76,5.81,1.52,11.63,2.28,17.45.46,3.5,1.21,7.48,4.25,9.29,5.04,3.01,10.82-2.42,14.18-7.24,4.09-5.86,8.17-11.73,12.26-17.59.81,28.65,25.49,22.93,43.33,14.43-.5.24,13.53,24.78,28.8,14.58ZM317.98,990.56c-2.55-1.54-3.99-3.88-5.24-5.94-1.22-2.09-2.29-3.98-3.31-4.89-.69-.61-1.16-.84-1.96-.88h-.02s-.07,0-.07,0c-.71,0-1.45.3-2.3,1.01-.83.7-1.66,1.76-2.33,2.87-2.61,4.29-4.19,9.23-4.58,14.23h0c-.11,1.37-1.31,2.4-2.68,2.29-1.37-.11-2.4-1.31-2.29-2.68.45-5.8,2.27-11.46,5.29-16.43.86-1.42,1.95-2.89,3.38-4.1,1.42-1.2,3.29-2.18,5.51-2.18h.24s0,0,0,0h.02s-.01,0-.01,0c2.11.05,3.92,1,5.19,2.21,1.29,1.21,2.19,2.62,3.02,3.99,1.61,2.77,3.06,5.32,4.68,6.21,1.19.7,1.58,2.23.87,3.42-.7,1.19-2.23,1.58-3.42.88ZM261.81,893.8c-1.2.68-2.72.26-3.4-.94-2.5-4.39-5.61-8.44-9.21-11.97-1.49-1.47-2.95-2.66-4.41-3.15-.63-.22-1.26-.32-1.9-.32-1.64,0-3.44.69-5.03,1.94-1.58,1.23-2.9,2.99-3.6,4.81-.86,2.2-1.18,4.59-1.18,7.15,0,2.83.4,5.83.83,8.84h0c.19,1.36-.75,2.63-2.12,2.82-1.36.19-2.63-.75-2.82-2.12-.43-3.04-.88-6.26-.88-9.55,0-2.96.37-6.01,1.51-8.95,1.06-2.73,2.89-5.14,5.18-6.94,2.29-1.79,5.09-2.99,8.11-3,1.17,0,2.37.19,3.53.59,2.68.94,4.63,2.71,6.27,4.3,3.94,3.86,7.33,8.27,10.06,13.07.68,1.2.26,2.72-.94,3.4ZM310.89,1293.18c-.62,0-1.23.09-1.81.27-2.84.81-5.05,4.2-5.02,7.4,0,1.08.24,2.11.71,3.01h0c.64,1.22.18,2.73-1.04,3.37-1.22.64-2.73.18-3.37-1.04-.89-1.69-1.29-3.54-1.29-5.34.03-5.22,3.19-10.44,8.52-12.16,1.09-.34,2.2-.49,3.29-.49,3.05,0,5.95,1.18,8.23,3.07.6.5,1.15,1.06,1.65,1.66,2.9-6.43,7.21-12.2,12.65-16.71.58-.47,1.25-1,2.09-1.45.83-.44,1.86-.82,3.06-.83l.69.04c1.14.14,2.08.63,2.81,1.15.74.53,1.3,1.12,1.77,1.65,4.25,4.8,6.5,11.11,6.5,17.44,0,2.61-.39,5.22-1.19,7.74-.42,1.31-1.82,2.04-3.14,1.62-1.31-.42-2.04-1.82-1.62-3.14.64-2,.95-4.1.95-6.22,0-5.14-1.87-10.33-5.25-14.14l-.94-.9-.52-.25h-.07s-.71.23-.71.23c-.36.19-.8.51-1.26.9-6.23,5.15-10.9,12.21-13.21,19.96-.34,1.13-1.43,1.87-2.61,1.77-1.18-.1-2.12-1.02-2.26-2.19-.19-1.68-1.15-3.29-2.6-4.5-1.44-1.2-3.31-1.92-5.03-1.92ZM379.08,1046.37c-1.09.81-2.41,1.19-3.63,1.18-1.75-.01-3.28-.66-4.59-1.53-1.31-.88-2.42-2.01-3.25-3.28-.99-1.52-1.7-3.03-2.44-4.24-.74-1.22-1.46-2.07-2.28-2.55-.61-.36-1.23-.51-1.94-.52-1.06,0-2.32.41-3.45,1.18-1.13.76-2.1,1.86-2.64,3.01-.93,1.93-1.27,4.17-1.27,6.64,0,1.87.19,3.84.4,5.83h0c.14,1.37-.85,2.6-2.22,2.74-1.37.15-2.6-.85-2.74-2.22-.21-2.02-.43-4.16-.43-6.36,0-2.9.37-5.93,1.76-8.81.98-2.03,2.51-3.73,4.34-4.97,1.82-1.24,3.97-2.04,6.25-2.04,1.51,0,3.08.38,4.49,1.22,1.88,1.13,3.07,2.74,3.99,4.24.92,1.51,1.61,2.98,2.36,4.11.44.68,1.13,1.39,1.84,1.86.71.48,1.41.69,1.82.68l.68-.22c1.11-.81,2.67-.57,3.49.54.81,1.11.57,2.67-.54,3.49ZM621.66,776.22c-.91,1.04-2.48,1.15-3.52.24-1.04-.91-1.15-2.48-.24-3.52l.38-1.01c.02-.64-.44-1.74-1.32-2.58-.87-.85-2.02-1.36-2.93-1.35h-.18c-1.64.11-3.18.85-4.72,2.11-1.52,1.25-2.95,3-4.21,4.8-.7,1-2.01,1.35-3.11.82-1.1-.52-1.66-1.75-1.33-2.93,1.02-3.65,1.53-7.44,1.53-11.24,0-6.66-1.56-13.33-4.6-19.22l-.15-.25-.45.22c-4.44,2.58-7.46,6.72-9.7,11.78-2.23,5.05-3.59,10.94-4.74,16.6-.21,1.02-1.01,1.8-2.04,1.97-1.03.17-2.04-.31-2.56-1.21-1.71-2.94-3.8-5.66-6.2-8.06-.98-.98-2.06-1.89-3.13-2.51-1.07-.62-2.07-.94-2.98-.94l-.46.03c-1.17.14-2.18.8-3.01,2-.82,1.18-1.33,2.84-1.32,4.39l.11,1.24h0c.62,3.64,3.39,7.06,6.45,10.49h0c.91,1.03.81,2.61-.22,3.52-1.03.91-2.61.81-3.52-.22-3.04-3.48-6.62-7.47-7.63-12.91h0c-.13-.7-.19-1.41-.19-2.13,0-2.56.76-5.11,2.2-7.22,1.43-2.09,3.7-3.8,6.56-4.12l1.02-.06c2.07,0,3.92.7,5.5,1.62,1.59.93,2.95,2.11,4.13,3.29,1.3,1.3,2.51,2.69,3.64,4.15.95-4.03,2.12-8.11,3.81-11.94,2.48-5.64,6.12-10.81,11.76-14.09.76-.42,1.76-.99,3.24-1.01.57,0,1.21.11,1.82.4,1.6.8,2.12,2.03,2.48,2.68,3.41,6.64,5.15,14.07,5.15,21.51,0,1.38-.16,2.76-.28,4.13,1.91-1.42,4.18-2.51,6.81-2.68l.49-.02c2.54.02,4.76,1.17,6.41,2.76,1.63,1.6,2.81,3.71,2.83,6.16.01,1.47-.51,3.05-1.61,4.29ZM625.99,366.26c-.75,1.15-2.3,1.48-3.45.73-2.6-1.71-4.1-4.1-5.44-6.17-1.33-2.1-2.52-3.92-3.96-4.98-1.19-.89-2.64-1.32-4.22-1.32-3.09-.03-6.49,1.78-8.01,4.42-.96,1.62-1.42,3.49-1.42,5.46,0,3.11,1.19,6.41,3.21,8.85h0c.88,1.06.72,2.64-.34,3.51-1.06.88-2.64.72-3.51-.34-2.76-3.36-4.34-7.67-4.35-12.02,0-2.75.65-5.53,2.12-8,2.61-4.34,7.44-6.84,12.3-6.86,2.5,0,5.06.71,7.22,2.32,2.43,1.85,3.84,4.24,5.16,6.28,1.31,2.07,2.5,3.75,3.96,4.68,1.15.75,1.48,2.3.73,3.45ZM782.62,815.77c-1.35.28-2.67-.59-2.95-1.94-.65-3.17-2.15-6.34-4.22-8.74-2.08-2.41-4.65-4.01-7.55-4.42l-.95-.07c-2.12-.01-4.44.99-6.15,2.57-1.72,1.58-2.74,3.63-2.72,5.43,0,.68.13,1.34.42,2.02h0c.54,1.27-.04,2.73-1.31,3.28-1.27.54-2.73-.04-3.28-1.31-.56-1.3-.82-2.66-.82-3.99.02-3.58,1.81-6.78,4.33-9.1,2.54-2.32,5.9-3.88,9.52-3.89.54,0,1.09.04,1.64.11,4.33.6,7.96,2.98,10.64,6.1,2.69,3.13,4.51,7.01,5.33,10.99.28,1.35-.59,2.67-1.94,2.95ZM1021.23,1031.05c1.45-.64,3.21-1.41,5.35-1.42l1.06.07c1.73.22,3.26,1.03,4.38,2.12,1.13,1.09,1.9,2.41,2.45,3.78,1.09,2.75,1.4,5.79,1.42,8.44,0,1.38-1.1,2.5-2.48,2.51-1.38,0-2.5-1.1-2.51-2.48,0-1.68-.18-3.54-.58-5.13-.4-1.6-1.05-2.87-1.74-3.52-.47-.44-.91-.67-1.6-.77l-.39-.03c-.83-.01-2,.38-3.29.98-3.5,1.59-6.84,3.55-9.94,5.83-.66.48-1.5.62-2.28.36s-1.37-.88-1.6-1.66c-.56-1.91-.7-3.83-.71-5.68,0-2.94.37-5.76.36-8.18,0-1.43-.12-2.7-.43-3.76-.31-1.06-.77-1.9-1.54-2.68-1.02-1.01-2.33-1.48-3.93-1.49-2.63-.03-5.82,1.53-7.49,3.74-2.99,3.8-3.74,9.4-4.25,15.17-.07.73-.46,1.4-1.06,1.81-.6.42-1.36.55-2.07.36-2.01-.54-3.32-1.84-4.29-2.94-.98-1.13-1.73-2.17-2.42-2.77-.95-.87-2.34-1.36-3.79-1.36-1.57,0-3.09.58-4.06,1.57-.97.97-1.54,2.47-1.54,4.02,0,1.46.5,2.87,1.39,3.83h0c.93,1.01.86,2.59-.15,3.53-1.01.93-2.59.87-3.52-.15-1.85-2.02-2.7-4.64-2.7-7.2,0-2.71.95-5.47,2.98-7.53,2.07-2.07,4.86-3.04,7.6-3.04,2.54,0,5.12.83,7.14,2.65.83.76,1.45,1.52,2.01,2.22.6-4.52,1.71-9.21,4.78-13.21,2.75-3.5,7.06-5.64,11.44-5.68,2.63-.01,5.38.87,7.45,2.95,1.43,1.42,2.32,3.11,2.81,4.82.49,1.72.62,3.45.62,5.14,0,2.86-.37,5.66-.36,8.18,0,.25.03.48.04.72,2.39-1.53,4.85-2.94,7.44-4.12ZM1084.49,1091.71c-.24,1.36-1.53,2.27-2.89,2.03-1.36-.24-2.27-1.53-2.03-2.89.5-2.84.96-5.65.96-8.25,0-1.86-.23-3.6-.8-5.22-.53-1.54-1.61-3.06-2.91-4.12-1.31-1.07-2.78-1.66-4.1-1.65-.45,0-.89.06-1.34.2-1.13.35-1.98.98-2.84,1.97-.85.98-1.63,2.33-2.41,3.87-1.6,3.05-3.09,6.88-6.35,9.69-.87.74-2.15.79-3.08.12-.93-.67-1.28-1.9-.85-2.96l.17-.82c.02-.71-.46-1.67-1.49-2.5-1.01-.82-2.46-1.36-3.7-1.34-.55,0-1.05.09-1.5.28-1.8.72-3.21,2.13-4.36,4.08-1.14,1.94-1.93,4.37-2.41,6.77h0c-.27,1.35-1.59,2.22-2.94,1.95-1.35-.27-2.22-1.59-1.95-2.94.56-2.76,1.47-5.68,3-8.29,1.52-2.6,3.72-4.95,6.8-6.19,1.1-.44,2.25-.64,3.37-.64,2.53.01,4.92.94,6.81,2.44.75.6,1.41,1.35,1.96,2.17.29-.52.57-1.07.85-1.63,1.21-2.37,2.37-5.02,4.29-7.28,1.28-1.5,2.98-2.83,5.16-3.49.93-.29,1.88-.42,2.8-.42,2.75,0,5.25,1.14,7.26,2.78,2.01,1.66,3.59,3.85,4.46,6.33.8,2.28,1.07,4.61,1.07,6.87,0,3.17-.54,6.25-1.03,9.11ZM1048.43,1321.22c3.14-.01,6.4,1.1,8.72,3.71,2.59,2.94,3.24,6.53,3.58,9.81.33,3.31.38,6.49,1.05,8.86.45,1.59,1.08,2.75,2.15,3.68,1.04.9,1.16,2.47.27,3.52-.9,1.04-2.47,1.16-3.52.27-1.49-1.28-2.5-2.86-3.15-4.48-.66-1.63-.98-3.31-1.2-4.96-.41-3.3-.41-6.56-.99-9.17-.38-1.74-.96-3.13-1.93-4.21-1.24-1.38-2.93-2.02-4.99-2.04-3.04-.03-6.61,1.63-8.57,4.08-3.61,4.35-4.56,10.82-5.26,17.41-.12,1.09-.94,1.98-2.02,2.18-1.08.2-2.16-.32-2.67-1.3-1.01-2-3.56-3.35-6.12-3.34-1.6,0-3.08.5-4.14,1.45-1.26,1.11-1.98,2.91-1.98,4.84,0,2.28,1.01,4.47,2.65,5.57h0c1.14.78,1.43,2.33.66,3.47-.78,1.14-2.33,1.43-3.47.66-3.29-2.26-4.83-6.04-4.83-9.69,0-3.11,1.13-6.32,3.65-8.57,2.13-1.89,4.83-2.71,7.46-2.71,2.26,0,4.52.66,6.49,1.85.77-5.18,2.13-10.53,5.73-14.97,3.05-3.68,7.75-5.88,12.43-5.91ZM1154.76,1331.11c-.14,1.37-1.36,2.37-2.73,2.24s-2.37-1.36-2.24-2.73c.21-2.1.4-4.17.4-6.14,0-2.49-.31-4.78-1.17-6.8-.59-1.39-1.66-2.74-2.91-3.67-1.26-.95-2.65-1.46-3.89-1.45-.51,0-1.01.08-1.5.26-1.36.46-2.74,1.77-4.15,3.42-3.63,4.17-6.83,8.71-9.53,13.54h0c-.67,1.2-2.19,1.63-3.4.96-1.2-.67-1.63-2.19-.96-3.4,2.87-5.12,6.26-9.95,10.12-14.37,1.53-1.73,3.39-3.8,6.24-4.84,1.05-.38,2.13-.55,3.18-.55,2.56,0,4.93.99,6.88,2.45,1.95,1.47,3.53,3.44,4.51,5.7,1.23,2.89,1.57,5.88,1.57,8.76,0,2.29-.22,4.52-.42,6.63ZM1256.37,870.41c-1.03-2.29-2.45-3.88-4.76-4.85-1.02-.42-2.11-.62-3.24-.62-2.83-.02-6.01,1.31-8.39,3.33-3.43,2.88-5.86,7.14-8.26,11.61h0c-.65,1.21-2.17,1.67-3.38,1.01-1.21-.65-1.67-2.17-1.01-3.38,2.43-4.49,5.08-9.36,9.43-13.06,3.18-2.67,7.29-4.5,11.61-4.51,1.72,0,3.46.3,5.14.99,3.61,1.47,6.06,4.27,7.44,7.46,1.39,3.2,1.86,6.8,1.87,10.41,0,3.74-.52,7.5-1.22,10.87-.28,1.35-1.6,2.22-2.95,1.94-1.35-.28-2.22-1.6-1.94-2.95.65-3.12,1.12-6.59,1.11-9.86,0-3.16-.45-6.13-1.45-8.41ZM1227.62,1028.63c3.41,0,6.36,1.67,8.56,3.91,2.21,2.26,3.79,5.15,4.55,8.17,1.04,4.29.91,8.45.94,12.35,3.04-2.16,6.59-3.58,10.34-3.92l1.11-.05c1.05,0,2.34.14,3.6.9,1.8,1.13,2.5,2.8,2.97,4.05.69,1.91,1.01,3.91,1.01,5.9,0,4.93-1.96,9.83-5.62,13.29-1,.94-2.58.9-3.53-.11-.95-1-.9-2.58.11-3.53,2.56-2.4,4.06-6.06,4.05-9.65,0-1.45-.24-2.88-.71-4.21-.31-.9-.71-1.42-.87-1.48-.11-.07-.43-.18-1.01-.18l-.68.03c-4.24.36-8.38,2.55-11.06,5.85-.63.78-1.68,1.1-2.64.82-.96-.28-1.67-1.12-1.78-2.11-.65-6.13.19-11.87-1.07-16.75-.52-2.13-1.73-4.33-3.26-5.88-1.54-1.56-3.29-2.42-5.01-2.42l-.82.06c-1.86.26-3.82,1.66-5.62,3.51-4.51,4.57-7.68,10.5-8.98,16.79-.24,1.16-1.27,2-2.46,1.99s-2.21-.85-2.43-2.02c-.38-1.97-1.58-3.81-3.28-5.15-1.69-1.34-3.83-2.14-5.86-2.13-.55,0-1.1.06-1.63.17-1.93.41-3.72,1.63-5.01,3.31-1.3,1.68-2.06,3.79-2.06,5.79,0,.62.07,1.22.22,1.82h0c.32,1.34-.5,2.69-1.83,3.01-1.34.33-2.69-.49-3.01-1.83-.24-.99-.36-2-.36-3,0-3.23,1.17-6.33,3.09-8.83,1.92-2.5,4.66-4.44,7.91-5.14.9-.19,1.8-.29,2.69-.29,3.29,0,6.44,1.22,8.95,3.21.74.59,1.41,1.27,2.04,2,1.9-4.91,4.76-9.44,8.46-13.19,2.1-2.11,4.78-4.35,8.4-4.93.53-.08,1.06-.12,1.59-.12ZM1276.36,1194.42c1.65-2.3,3.66-4.68,6.08-6.56,2.41-1.87,5.34-3.3,8.69-3.3l1.31.07c3.52.4,6.39,2.41,8.35,4.98,1.97,2.58,3.15,5.76,3.39,8.99.04.51.05,1.01.05,1.51-.02,5.63-2.14,10.72-4.03,15.36-.52,1.27-1.98,1.88-3.26,1.36-1.27-.52-1.88-1.98-1.36-3.26,1.91-4.62,3.67-9.16,3.65-13.47l-.04-1.15c-.15-2.22-1.03-4.57-2.38-6.31-1.35-1.75-3.05-2.85-4.95-3.06l-.75-.04c-1.88,0-3.76.81-5.63,2.25-1.86,1.44-3.61,3.47-5.09,5.53-3.08,4.28-5.78,8.83-8.08,13.58-.43.89-1.36,1.45-2.35,1.41-.99-.04-1.87-.67-2.23-1.6-1.23-3.23-2.46-6.22-4.39-8.27-1.43-1.56-3.57-2.62-5.31-2.59-.49,0-.96.07-1.41.23-1.04.34-2.12,1.18-3.13,2.32-2.82,3.12-4.5,7.32-4.6,11.52h0c-.03,1.38-1.18,2.47-2.56,2.43-1.38-.03-2.47-1.18-2.43-2.56.14-5.43,2.25-10.71,5.88-14.74,1.31-1.45,2.98-2.94,5.25-3.7.99-.33,2.01-.49,3-.49,3.54.03,6.7,1.78,8.96,4.18,1.43,1.55,2.48,3.27,3.34,5.01,1.83-3.32,3.79-6.57,6-9.64ZM1193.22,670.61c3.7-3.2,8.46-5.23,13.51-5.23h.11s-.02,0-.02,0c1.1.02,2.68.06,4.23,1.19,1.5,1.17,1.95,2.64,2.3,3.59,1.6,4.68,2.42,9.61,2.42,14.55,0,1.35-.06,2.7-.18,4.04-.12,1.37-1.34,2.39-2.71,2.26-1.37-.12-2.39-1.33-2.26-2.71.11-1.2.16-2.4.16-3.6,0-4.39-.73-8.78-2.15-12.93l-.38-.94-.21-.29-.3-.11-.95-.07h-.02s-.05,0-.05,0c-3.68,0-7.36,1.51-10.24,4.01-2.88,2.5-4.91,5.92-5.42,9.56h0c-.2,1.36-1.46,2.31-2.82,2.12-1.36-.19-2.31-1.46-2.12-2.82.72-5,3.4-9.43,7.09-12.63ZM1216.72,721.43c50.91,7.39,67.26,79.51,14.86,99.53-36.74,14.04-82.15,6.34-119.94,1.6-14-1.75-29.25-4.58-38.34-15.37-4.87-5.77-7.34-13.21-8.62-20.65-1.43-8.31-.96-15.66,1.05-22.14,14.68-47.34,111.61-48.7,151-42.98ZM1041.91,424.41c2.36-6.39,6.71-11.98,12.32-15.85,1.57-1.07,3.46-2.2,5.82-2.54l1.3-.09c2.57,0,4.88,1.04,6.72,2.54,1.84,1.51,3.27,3.48,4.14,5.68.85,2.19,1.18,4.42,1.29,6.6,2.55-2.57,5.43-4.94,9.05-6.4,1.94-.77,4.04-1.16,6.14-1.16,2.28,0,4.57.46,6.64,1.46,2.06,1,3.91,2.59,5.11,4.77h0c.97,1.77,1.39,3.71,1.39,5.59-.02,3.91-1.7,7.64-4.23,10.46-3.68,4.04-8.51,6.17-12.86,8.15-1.26.57-2.73,0-3.3-1.25-.57-1.26,0-2.73,1.25-3.3,4.35-1.94,8.49-3.91,11.2-6.94,1.78-1.95,2.96-4.72,2.94-7.11,0-1.16-.25-2.23-.77-3.19-.65-1.17-1.64-2.06-2.92-2.69-1.28-.63-2.85-.96-4.46-.96-1.48,0-2.98.28-4.29.81-4.43,1.74-8.07,5.75-11.69,10-.7.82-1.85,1.09-2.84.68-1-.41-1.61-1.41-1.54-2.48.12-1.66.23-3.29.23-4.85,0-2.32-.25-4.47-.99-6.36-.53-1.37-1.5-2.71-2.64-3.63-1.14-.93-2.4-1.42-3.57-1.42l-.6.04c-1.1.14-2.37.79-3.69,1.71-4.75,3.26-8.48,8.06-10.47,13.47h0c-.48,1.29-1.91,1.95-3.21,1.48-1.29-.48-1.95-1.91-1.48-3.21ZM985.58,567.72c31.72-17.57,67.29-34.22,84.38-41.97h0l10.52,23.24c-19.4,8.77-64,29.74-97.14,49.39-11.02,6.52-20.78,12.93-27.62,18.37-3.53,2.79-6.21,5.32-7.83,7.18,2.09,2.01,5.53,4.75,9.94,7.74,9.64,6.6,23.56,14.47,38.53,22.23,29.97,15.56,64.37,30.92,80.45,37.8l-10.04,23.45c-19.74-8.46-65.18-28.78-99.44-47.89-11.45-6.4-21.63-12.62-29.56-18.59-4.55-3.45-8.36-6.72-11.54-10.63-1.68-2.12-3.25-4.44-4.37-7.66-.39-1.14-.64-2.45-.8-3.84-.12-.76-.18-1.45-.18-1.92h0s0-.02,0-.03h0c.02-4.09,1.24-7.41,2.67-10.17,1.46-2.77,3.23-5.12,5.21-7.38,3.96-4.48,8.86-8.64,14.61-12.96,11.46-8.57,26.34-17.55,42.22-26.36ZM927.39,447.29c-.44,1.31-1.86,2.01-3.16,1.57-1.31-.44-2.01-1.86-1.57-3.16,1.08-3.17,2.24-6.75,4.79-9.8,2.19-2.58,5.4-4.55,9.1-4.58.76,0,1.53.09,2.3.29,2.99.77,5.09,2.84,6.5,5.07,1.43,2.24,2.32,4.74,3.04,6.97.42,1.31-.31,2.72-1.62,3.13-1.31.42-2.72-.31-3.13-1.62-.66-2.08-1.46-4.21-2.49-5.8-1.04-1.61-2.15-2.56-3.53-2.92l-1.06-.13c-1.73-.03-3.89,1.13-5.28,2.8-1.76,2.07-2.82,5.01-3.88,8.19h0ZM904.36,229.56c.54-.08,1.12-.13,1.74-.13,1.2,0,2.62.21,3.94,1.06h0c1.67,1.12,2.39,2.65,2.93,3.8,0,0,0,0,0,0h0s0,0,0,0c.81,1.79,1.43,3.66,1.87,5.57,3.88-4.17,8.49-7.64,13.58-10.19,3.84-1.91,8.21-3.37,12.75-3.37,1.81,0,3.65.24,5.45.79,2.87.88,5.41,2.65,7.3,4.93,1.87,2.28,3.13,5.13,3.13,8.22,0,.89-.11,1.79-.33,2.69h0c-.68,2.67-2.22,4.81-4,6.51-1.78,1.71-3.82,3.04-5.75,4.19-4.03,2.4-8.22,4.53-12.53,6.38-1.27.54-2.73-.04-3.28-1.3-.54-1.27.04-2.73,1.31-3.28,4.11-1.77,8.11-3.81,11.95-6.09,1.78-1.05,3.51-2.22,4.84-3.5,1.34-1.29,2.24-2.63,2.62-4.14.12-.49.18-.98.18-1.47,0-1.69-.72-3.5-1.99-5.05-1.27-1.55-3.06-2.77-4.9-3.33-1.29-.39-2.62-.57-4-.57-3.43,0-7.14,1.16-10.52,2.85-6.13,3.06-11.52,7.64-15.52,13.21-.62.87-1.74,1.24-2.76.93-1.02-.32-1.73-1.25-1.76-2.32-.08-3.3-.83-6.6-2.19-9.6h0c-.41-.94-.85-1.54-1.1-1.67-.2-.14-.59-.26-1.22-.26l-1.05.08c-6.51.85-12.35,6.79-13.09,13.31h0c-.17,1.37-1.41,2.34-2.78,2.17-1.37-.17-2.34-1.41-2.17-2.78,1.15-8.92,8.45-16.35,17.35-17.65ZM883.18,389.41c.88-1.37,1.9-2.53,2.83-3.57,1.58-1.76,3.36-3.68,5.47-5.27,2.11-1.58,4.64-2.85,7.61-3.03l.68-.02c5.19.05,9.45,3.35,12,7.27h0c2.59,4.07,3.56,8.59,4.47,12.72.29,1.35-.56,2.68-1.9,2.97-1.35.3-2.68-.56-2.97-1.9-.9-4.12-1.83-8.04-3.8-11.09-1.84-2.89-4.97-5.03-7.8-4.98h-.38c-1.69.11-3.28.84-4.92,2.06-1.63,1.21-3.22,2.89-4.75,4.6-.9,1-1.74,1.98-2.33,2.92-.6.94-.93,1.79-1,2.62h0c-.11,1.37-1.32,2.4-2.69,2.28-1.37-.11-2.4-1.32-2.28-2.69.16-1.89.89-3.52,1.76-4.89ZM870.65,773.1c2.83-2.53,6.57-4.33,10.57-4.35,1.28,0,2.59.2,3.86.63,2.57.88,4.62,2.58,6.12,4.61,1.51,2.03,2.5,4.39,3,6.8.35,1.7.48,3.38.48,5.03,0,2.94-.41,5.77-.78,8.45-.19,1.36-1.45,2.32-2.82,2.12-1.36-.19-2.32-1.45-2.12-2.82.38-2.68.74-5.3.74-7.76,0-1.39-.11-2.73-.38-4.02-.36-1.74-1.1-3.47-2.12-4.84-1.02-1.38-2.28-2.37-3.72-2.86-.73-.25-1.48-.36-2.26-.36-2.42-.02-5.19,1.21-7.24,3.07-2.79,2.49-4.77,6.12-6.78,9.96-.42.8-1.23,1.3-2.13,1.33-.9.03-1.74-.43-2.21-1.19-1.46-2.4-3.16-4.86-5-6.61-1.87-1.76-3.71-2.72-5.73-2.72h-.22c-1.31.05-2.62.56-3.8,1.46-1.17.89-2.17,2.17-2.78,3.54-.76,1.7-1.1,3.62-1.1,5.66,0,1.35.15,2.75.4,4.14h0c.25,1.36-.65,2.66-2.01,2.9-1.36.25-2.66-.65-2.9-2.01-.3-1.63-.48-3.32-.48-5.03,0-2.57.41-5.21,1.53-7.71.96-2.12,2.43-4.02,4.29-5.45,1.86-1.43,4.15-2.4,6.66-2.49h.39c3.72,0,6.79,1.82,9.16,4.08,1.32,1.26,2.45,2.67,3.49,4.11,1.55-2.71,3.34-5.42,5.85-7.69ZM846.28,560.29c2.91-3.79,4.72-8.88,8.07-13.59.8-1.12,2.36-1.37,3.48-.57,1.12.8,1.37,2.36.57,3.48-2.84,3.9-4.66,9.04-8.14,13.69-3.01,3.91-7.62,7.3-13.01,7.36-1.11,0-2.24-.16-3.35-.5-2.72-.84-4.86-2.65-6.38-4.8-1.52-2.16-2.46-4.68-2.82-7.22,0,0,0,0,0,0h0s0,0,0,0c-.15-1.04-.21-2.06-.21-3.06,0-3.85.9-7.49,1.71-10.87h0c.32-1.34,1.67-2.16,3.01-1.84,1.34.32,2.16,1.67,1.84,3.01-.82,3.38-1.57,6.65-1.57,9.7,0,.8.05,1.58.16,2.35h0c.25,1.81.95,3.63,1.96,5.06,1.02,1.44,2.3,2.45,3.77,2.91.62.19,1.24.28,1.88.28,3.05.06,6.74-2.32,9.03-5.39ZM801.45,170.37c4.16-4.36,10.03-7.22,16.15-7.23,1.62,0,3.25.21,4.85.65,4,1.11,7.28,3.72,9.55,6.96,2.27,3.25,3.57,7.18,3.57,11.17,0,2.38-.48,4.79-1.52,7.04-.58,1.25-2.07,1.79-3.31,1.21-1.25-.58-1.79-2.06-1.21-3.31.71-1.54,1.05-3.21,1.06-4.93,0-2.88-.98-5.88-2.68-8.31-1.7-2.43-4.07-4.26-6.79-5.01-1.15-.32-2.33-.47-3.52-.47-4.5-.02-9.28,2.23-12.53,5.68-4.19,4.4-6.45,10.65-7.26,17.05h0c-.17,1.37-1.42,2.33-2.79,2.16-1.37-.17-2.34-1.42-2.16-2.79.91-7.11,3.4-14.38,8.59-19.86ZM788.54,625.56l19.83,2.23c-1.91,16.78-9.5,32.55-21.03,44.45-11.5,11.87-27.34,19.93-45.22,19.93-5.77,0-11.7-.84-17.66-2.6-12.73-3.78-23.36-11.97-30.86-22.27-7.49-10.31-11.98-22.87-11.99-35.92,0-2.72.2-5.47.61-8.21h0s19.73,3,19.73,3c-.26,1.72-.39,3.46-.39,5.21-.02,8.38,2.99,17.07,8.17,24.18,5.18,7.12,12.4,12.53,20.37,14.87,4.18,1.23,8.17,1.78,12,1.79,11.77,0,22.46-5.23,30.91-13.88,8.41-8.62,14.17-20.61,15.51-32.77ZM707.48,114.49c1.71-1.3,3.76-1.85,5.72-1.85,2.42,0,4.77.79,6.74,2.16.84.6,1.58,1.27,2.25,2,.92-5.58,2.91-10.97,5.98-15.74h0c.96-1.49,2.16-3.04,3.71-4.3,1.53-1.25,3.52-2.25,5.84-2.25h.32c1.72.07,3.3.69,4.53,1.63,1.24.94,2.16,2.16,2.86,3.46,1.39,2.62,1.96,5.65,1.97,8.44v.09h0v.08c-.04,5.73-1.24,11.43-3.51,16.68-.55,1.26-2.02,1.85-3.28,1.3-1.26-.55-1.85-2.02-1.3-3.28,2.01-4.63,3.07-9.69,3.11-14.73v-.07s0-.06,0-.06c0-1.55-.27-3.28-.79-4.74-.52-1.47-1.29-2.61-2.06-3.19-.53-.39-1.02-.58-1.72-.62h-.12c-.85,0-1.73.35-2.69,1.13-.95.77-1.89,1.92-2.66,3.13h0c-3.75,5.84-5.79,12.81-5.79,19.76,0,.5.01,1.01.04,1.52.05,1.23-.8,2.32-2.01,2.56-1.21.24-2.41-.44-2.83-1.6-1.06-2.97-2.59-5.62-4.71-7.1-1.1-.78-2.56-1.26-3.86-1.25-1.07,0-1.98.29-2.7.83-1.16.86-1.88,2.59-1.87,4.55,0,.52.05,1.05.15,1.55h0c.46,2.49,1.95,4.99,3.63,7.66h0c.73,1.17.38,2.71-.79,3.44-1.17.73-2.71.38-3.44-.79-1.66-2.68-3.58-5.66-4.31-9.36h0c-.16-.82-.24-1.65-.24-2.5,0-3.06,1.06-6.38,3.84-8.52ZM567.83,234.65c2.05-.84,4.22-1.22,6.37-1.22,1.8,0,3.57.32,5.29.81-2.84-6.91-5.25-14.28-5.27-21.84,0-2.99.39-6.02,1.3-9.01h0c.82-2.67,2.18-5.67,5.04-7.62,1.81-1.22,3.86-1.71,5.82-1.7,3.87.03,7.47,1.7,10.42,3.55,5.38,3.42,10.12,7.81,14.02,12.85.26-1.45.61-2.91,1.2-4.36.82-1.97,2.06-3.83,3.69-5.31,1.63-1.48,3.69-2.6,6.07-2.9l1.23-.08c4.5.05,8.24,2.81,10.53,6.16,2.42,3.61,3.31,7.66,4.15,11.3.31,1.34-.53,2.68-1.88,2.99-1.34.31-2.68-.53-2.99-1.88-.82-3.64-1.68-7.05-3.43-9.62-1.54-2.32-4.16-4.01-6.39-3.96l-.62.04c-1.18.15-2.31.71-3.33,1.64-1.02.92-1.88,2.19-2.43,3.52-1.15,2.76-1.35,6.12-1.48,9.69-.04,1.11-.82,2.05-1.89,2.32-1.07.27-2.2-.21-2.76-1.17-3.99-6.86-9.68-12.77-16.38-17.03-2.45-1.58-5.44-2.8-7.74-2.77-1.18,0-2.15.26-3.04.86-1.36.88-2.39,2.74-3.04,4.92h0c-.75,2.48-1.08,4.99-1.08,7.55-.02,8.42,3.66,17.44,7.48,25.95.46,1.04.17,2.25-.72,2.96-.89.71-2.14.73-3.05.05-2.49-1.87-5.68-2.95-8.72-2.95-1.56,0-3.08.28-4.48.85-3.69,1.47-6.54,5.51-6.49,9.27l.09,1.19h0c.26,1.76,1.27,3.49,2.72,4.75,1.44,1.26,3.26,2.01,4.95,2l1.27-.14h0c1.34-.3,2.68.55,2.97,1.9.3,1.35-.55,2.68-1.9,2.97-.78.17-1.57.26-2.35.26-3.1,0-5.99-1.28-8.23-3.23-2.24-1.96-3.89-4.66-4.37-7.75h0c-.1-.64-.15-1.29-.15-1.94.05-6.09,4.05-11.58,9.59-13.89ZM494.64,424.75c1.33-.37,2.7.41,3.07,1.73.67,2.41,1.65,5.02,2.89,7.27,1.23,2.25,2.74,4.09,4.26,5.09,1.02.67,2.01.99,3.12,1l1.06-.1c1.47-.28,2.78-1.21,3.81-2.66,1.02-1.44,1.67-3.36,1.76-5.16l.02-.71c.02-3.59-1.46-7.42-3.1-11.36-.53-1.27.08-2.73,1.35-3.26,1.27-.53,2.73.08,3.26,1.35,1.62,3.96,3.46,8.35,3.48,13.26l-.02.97c-.15,2.75-1.06,5.48-2.66,7.77-1.59,2.27-3.96,4.13-6.97,4.7-.66.12-1.33.19-1.98.19-2.18,0-4.2-.71-5.87-1.82-1.68-1.11-3.07-2.6-4.26-4.25-2.36-3.31-3.94-7.32-4.95-10.93h0c-.37-1.33.41-2.7,1.73-3.07ZM429.88,390.18v-.02s0,.01,0,.02c.44-2.92,2.16-5.27,4.29-6.88,2.14-1.62,4.74-2.59,7.38-2.83.53-.05,1.07-.07,1.59-.07,1.76,0,3.43.28,5.06.66-3.08-5.51-4.73-11.8-4.73-18.11,0-2.94.35-5.88,1.09-8.76,0,0,0,0,0,0h0c.35-1.37.87-2.85,1.77-4.23.89-1.36,2.29-2.7,4.26-3.18.53-.13,1.05-.19,1.56-.19,2.46.03,4.31,1.18,5.78,2.13,7.75,5.16,13.74,12.84,16.85,21.61.46,1.3-.22,2.72-1.52,3.19-1.3.46-2.72-.22-3.19-1.52-2.74-7.74-8.08-14.58-14.91-19.13-1.19-.82-2.38-1.33-3.02-1.29l-.37.04c-.41.1-.81.38-1.28,1.08-.45.68-.85,1.71-1.11,2.73h0c-.63,2.45-.93,4.98-.93,7.52,0,7.64,2.79,15.34,7.84,21.02.76.86.84,2.12.19,3.06-.65.94-1.85,1.33-2.93.93-3.64-1.36-7.17-2.58-10.43-2.57l-1.15.05c-1.69.15-3.48.82-4.81,1.83-1.34,1.02-2.16,2.27-2.37,3.65v.02s-.06.75-.06.75c0,1.6.78,3.23,2.26,4.86,1.46,1.62,3.55,3.11,5.6,4.28h0c1.2.68,1.61,2.21.93,3.4-.68,1.2-2.21,1.61-3.4.93-2.36-1.35-4.83-3.07-6.83-5.26-1.98-2.17-3.55-4.94-3.55-8.22,0-.48.03-.99.12-1.52,0,0,0,0,0,0ZM403.87,548.99l10.52-23.24c10.51,4.76,28.03,12.9,47.33,22.55,19.31,9.65,40.37,20.78,58.13,31.66,11.86,7.28,22.21,14.35,30.01,21.35,4.45,4.07,8.18,7.96,10.94,13.11,1.2,2.31,2.2,5.05,2.53,8.27.12.77.14,1.37.14,1.82,0,.03,0,.05,0,.07h0s0,.02,0,.03c0,.02,0,.03,0,.05v.03s0,.07,0,.09v.37s-.01.08-.01.08v.03s0,.02,0,.02v.13s-.05,0-.05,0c-.09,1.84-.42,3.53-.91,4.98-.57,1.67-1.28,3.08-2.05,4.36-1.55,2.55-3.32,4.6-5.27,6.58-3.91,3.92-8.67,7.57-14.27,11.41-11.16,7.61-25.67,15.76-41.16,23.8-30.94,16.06-65.61,31.52-82.16,38.61l-10.04-23.45c18.56-7.94,61.58-27.21,93.95-45,10.77-5.91,20.37-11.68,27.23-16.57,3.37-2.39,6.02-4.56,7.75-6.21,0-.01-.01-.02-.02-.03-2.07-2.37-5.85-5.74-10.75-9.39-9.81-7.35-24-16-39.3-24.47-30.64-16.99-65.86-33.49-82.53-41.04h0ZM298.78,590.12h0s0,0,0,0c3.06-5.89,9.44-9.15,15.75-9.17,2.91,0,5.85.71,8.45,2.28.69.42,1.32.87,1.91,1.31-.06-.63-.21-1.23-.21-1.87-.02-2.85.79-6,3.36-8.2,1.82-1.58,4.09-2.22,6.26-2.22,2.61,0,5.15.87,7.25,2.34,3.67,2.61,5.74,6.36,7.6,9.62.68,1.2.25,2.72-.95,3.4-1.2.68-2.72.25-3.4-.95-1.83-3.27-3.66-6.28-6.13-8-1.25-.89-2.93-1.44-4.38-1.43-1.23,0-2.23.34-3,1-1.14.99-1.61,2.37-1.63,4.43,0,2.07.6,4.59,1.33,6.86.31.96,0,2.02-.77,2.67-.77.65-1.86.77-2.76.31-3.02-1.61-5.03-3.82-7.07-5-1.74-1.05-3.77-1.56-5.87-1.56-4.61-.02-9.35,2.53-11.31,6.46h0c-.79,1.55-1.17,3.28-1.18,5.07-.03,4.88,2.94,9.94,7.27,11.73h0c1.27.54,1.86,2,1.32,3.27s-2.01,1.86-3.27,1.32c-6.49-2.81-10.28-9.57-10.31-16.32,0-2.5.53-5.03,1.73-7.35,0,0,0,0,0,0ZM228.15,764.41c14.69-47.34,111.61-48.7,151-42.98,50.92,7.39,67.26,79.51,14.86,99.53-36.74,14.04-82.15,6.34-119.94,1.6-14-1.75-29.25-4.58-38.34-15.37-4.86-5.77-7.34-13.21-8.62-20.65-1.44-8.31-.97-15.66,1.04-22.14ZM131.1,1115.87c-.51,1.28-1.96,1.9-3.24,1.39-1.28-.51-1.9-1.96-1.39-3.24,1.65-4.09,3.15-8.17,3.13-11.88,0-.81-.07-1.61-.21-2.4-.31-1.72-1.32-3.53-2.65-4.81-1.34-1.3-2.92-2.01-4.31-2l-1.32.21c-1.01.32-1.93.99-2.82,1.98-.89.98-1.69,2.27-2.41,3.61-2.47,4.6-4.26,9.58-5.3,14.7-.2.99-.98,1.76-1.97,1.95-.99.19-2-.23-2.56-1.07-2.11-3.2-5.13-5.82-8.58-7.48-1.15-.56-2.47-.93-3.44-.92-.78,0-1.25.18-1.63.49-.6.43-1.07,1.82-1.06,3.5v.05s0,0,0,0c-.01,4.42,2.04,8.92,5.39,11.81h0c1.04.9,1.15,2.48.25,3.52-.9,1.04-2.48,1.15-3.52.25-4.46-3.89-7.09-9.65-7.11-15.57h0v-.15c.04-2.26.44-5.14,2.83-7.23,1.45-1.23,3.24-1.67,4.84-1.66,2.07,0,3.97.64,5.6,1.41,2.72,1.31,5.16,3.12,7.28,5.26,1.14-3.88,2.66-7.65,4.57-11.22.82-1.53,1.8-3.14,3.09-4.58,1.29-1.44,2.93-2.74,5.02-3.4.94-.3,1.9-.44,2.84-.44,3.03.01,5.73,1.42,7.78,3.4,2.05,1.99,3.54,4.61,4.09,7.48.21,1.11.3,2.22.3,3.31-.02,5-1.85,9.6-3.49,13.73ZM149.69,886.17c-1.24,0-2.34.28-3.36.9-2.25,1.32-3.61,4.47-3.6,7.69v.55s.01,0,.01,0c.15,3.43,1.59,6.98,3.17,10.68,1.32,3.09,2.64,6.18,3.95,9.27.38.89.21,1.93-.44,2.65-.65.72-1.66,1-2.59.72-2.75-.85-5.85-1.54-8.5-1.53-1.46,0-2.77.21-3.83.63-1.06.43-1.87,1.02-2.56,1.97-.69.96-1.03,2.16-1.03,3.53,0,1.53.46,3.22,1.24,4.63,1.52,2.79,4.23,5.15,7.16,7.57h0c1.06.88,1.2,2.46.32,3.51-.88,1.06-2.46,1.2-3.51.32-2.92-2.45-6.19-5.12-8.33-9-1.16-2.12-1.85-4.55-1.86-7.04,0-2.2.57-4.49,1.96-6.44,1.25-1.77,2.96-2.99,4.77-3.7,1.82-.72,3.75-.98,5.67-.98,1.67,0,3.34.2,4.97.51-.66-1.55-1.32-3.1-1.99-4.66-1.57-3.71-3.34-7.78-3.57-12.41h0s-.02-.78-.02-.78c.01-4.45,1.73-9.3,5.99-11.95,1.86-1.14,3.94-1.64,5.96-1.63,4.78.04,9.25,2.52,12.46,5.74,4.35,4.48,6.88,9.79,10.49,13.44.96.99.94,2.57-.05,3.53-.99.96-2.57.94-3.53-.05-4.32-4.5-6.85-9.79-10.48-13.42-2.39-2.47-6-4.29-8.9-4.25ZM185.61,1244.78c-1.07.05-2.05-.58-2.44-1.58-1.05-2.84-4.52-5.01-7.63-4.97-1.26,0-2.41.32-3.4.97-1.5.96-2.42,2.98-2.42,5.12,0,1.17.28,2.31.77,3.2.5.9,1.16,1.55,2.04,1.94h0c1.26.56,1.83,2.03,1.27,3.29-.56,1.26-2.03,1.83-3.29,1.27-1.98-.87-3.47-2.39-4.4-4.11-.94-1.73-1.38-3.66-1.38-5.6,0-3.47,1.43-7.13,4.66-9.28,1.89-1.25,4.04-1.8,6.15-1.8,3.37.03,6.69,1.36,9.17,3.68,1.35-3.8,2.9-7.52,4.84-11.06,1.77-3.2,3.97-6.69,7.62-8.95,1.92-1.17,4.15-1.82,6.42-1.82,2.23,0,4.56.67,6.43,2.3,1.65,1.44,2.59,3.32,3.05,5.15.46,1.84.53,3.68.53,5.45,0,1.21-.04,2.38-.04,3.49,0,1.51.07,2.86.31,4,2.99-3.14,6.47-6.18,11.12-7.55,1.21-.35,2.46-.51,3.71-.51,2.66,0,5.31.72,7.54,2.16,2.22,1.42,4.04,3.69,4.55,6.6.11.63.15,1.24.15,1.82,0,1.8-.39,3.4-.7,4.8-.31,1.34-1.65,2.18-2.99,1.88-1.34-.31-2.18-1.65-1.88-2.99.32-1.39.59-2.65.58-3.69l-.08-.96c-.24-1.33-1.03-2.41-2.35-3.28-1.3-.85-3.09-1.36-4.82-1.36-.81,0-1.61.11-2.33.32-4.2,1.17-7.79,4.86-11.31,8.82-.48.54-1.18.84-1.9.83-.72-.01-1.41-.34-1.87-.9-2.53-3.1-2.7-6.79-2.71-9.99,0-1.22.04-2.39.04-3.49,0-1.62-.09-3.08-.38-4.22-.3-1.15-.73-1.95-1.5-2.63-.79-.69-1.86-1.05-3.13-1.06-1.28,0-2.7.4-3.81,1.09-2.37,1.43-4.22,4.1-5.85,7.09-2.55,4.65-4.58,9.6-6.03,14.71-.29,1.03-1.21,1.76-2.28,1.81Z" style="fill:#fbf1e5;"/><rect x="563.46" y="624.77" height="0" transform="translate(-97.51 1145.31) rotate(-86.18)" style="fill:#fbf1e5;"/><polygon points="562.48 619.72 562.5 619.71 562.48 619.72 562.48 619.72" style="fill:#fbf1e5;"/><path d="M931.94,1314.15c-5.56-50.96-2.87-102.42.52-153.42,5.97-89.89,14.03-179.63,24.18-269.15,2.28-20.1.35-40.95-23.13-44.48-132.93-19.99-264.28-22.93-398.14-11.33-8.78.76-18.02,1.67-25.17,6.22-10.66,6.78-13.55,19.43-15.63,30.86-27.09,148.77-54.26,299.24-40.87,449.46,2.35,26.38,5.42,50.46,17.37,68.29,0,.01.02.03.03.04,4.43,6.6,10.11,12.34,17.41,17.02,9.86,6.33,22.69,10.75,39.57,12.7,72.54,8.41,145.54,12.85,218.57,13.33,31.36.21,63.72,3.48,94.78.09,31.4-3.43,62.86-5.32,94.17-10.07,5.55-.84,11.36-1.84,15.76-5.33,2.58-2.05,3.99-4.35,4.57-6.78.83-3.47-.07-7.21-1.58-10.92-1.96-4.82-4.97-9.57-6.81-13.54-10.2-21.94-12.97-49.15-15.57-73Z" style="fill:#55584a;"/><path d="M486.4,590.03c15.3,8.47,29.49,17.12,39.3,24.47,4.89,3.64,8.68,7.02,10.75,9.39,0,.01.01.02.02.03-1.73,1.65-4.37,3.83-7.75,6.21-6.86,4.88-16.46,10.66-27.23,16.57-32.37,17.79-75.39,37.06-93.95,45l10.04,23.45c16.55-7.09,51.22-22.55,82.16-38.61,15.49-8.05,29.99-16.19,41.16-23.8,5.6-3.84,10.36-7.49,14.27-11.41,1.96-1.98,3.72-4.03,5.27-6.58.77-1.28,1.48-2.7,2.05-4.36.49-1.45.82-3.14.91-4.98h.04s0-.13,0-.13v-.02s0-.03,0-.03v-.08s.01-.37.01-.37c0-.02,0-.06,0-.09v-.03s0-.03,0-.05c0,0,0-.02,0-.03h0s0-.05,0-.08c0-.45-.02-1.06-.14-1.82-.32-3.22-1.33-5.96-2.53-8.27-2.76-5.15-6.48-9.04-10.94-13.11-7.8-6.99-18.15-14.06-30.01-21.35-17.76-10.88-38.82-22-58.13-31.66-19.3-9.65-36.82-17.79-47.33-22.55l-10.52,23.24h0c16.67,7.54,51.9,24.05,82.53,41.04ZM563.47,624.78h0s0,0,0,0h0ZM562.48,619.72h.02s-.02,0-.02,0Z" style="fill:#55584a;"/><path d="M928.76,607.03c-1.98,2.26-3.75,4.6-5.21,7.38-1.43,2.76-2.65,6.08-2.67,10.17h0s0,.03,0,.03h0c0,.48.06,1.16.18,1.93.16,1.39.42,2.7.8,3.84,1.12,3.22,2.69,5.54,4.37,7.66,3.18,3.9,6.99,7.17,11.54,10.63,7.93,5.97,18.12,12.19,29.56,18.59,34.26,19.11,79.69,39.42,99.44,47.89l10.04-23.45c-16.08-6.88-50.48-22.24-80.45-37.8-14.97-7.76-28.88-15.63-38.53-22.23-4.41-3-7.85-5.74-9.94-7.74,1.62-1.86,4.31-4.39,7.83-7.18,6.84-5.44,16.6-11.84,27.62-18.37,33.14-19.65,77.74-40.62,97.14-49.39l-10.52-23.24h0c-17.1,7.74-52.67,24.39-84.38,41.97-15.88,8.81-30.76,17.79-42.22,26.36-5.75,4.31-10.65,8.48-14.61,12.96Z" style="fill:#55584a;"/><path d="M742.12,672.21c-3.83,0-7.83-.55-12-1.79-7.98-2.34-15.2-7.74-20.37-14.87-5.18-7.11-8.19-15.81-8.17-24.18,0-1.75.13-3.5.39-5.21l-19.73-2.99h0c-.42,2.74-.62,5.49-.61,8.21.02,13.06,4.5,25.61,11.99,35.92,7.5,10.3,18.13,18.49,30.86,22.27,5.96,1.76,11.89,2.6,17.66,2.6,17.88,0,33.72-8.06,45.22-19.93,11.53-11.9,19.12-27.68,21.03-44.45l-19.83-2.23c-1.34,12.17-7.1,24.15-15.51,32.77-8.45,8.65-19.14,13.87-30.91,13.88Z" style="fill:#55584a;"/><path d="M1065.72,764.41c-2.01,6.49-2.48,13.83-1.05,22.14,1.28,7.44,3.76,14.88,8.62,20.65,9.09,10.79,24.34,13.61,38.34,15.37,37.79,4.73,83.2,12.44,119.94-1.6,52.4-20.03,36.05-92.14-14.86-99.53-39.39-5.72-136.31-4.36-151,42.98Z" style="fill:#f7bfc4;"/><path d="M235.73,807.2c9.1,10.79,24.34,13.61,38.34,15.37,37.79,4.73,83.2,12.44,119.94-1.6,52.4-20.03,36.05-92.14-14.86-99.53-39.39-5.72-136.31-4.36-151,42.98-2.01,6.49-2.48,13.83-1.04,22.14,1.28,7.44,3.76,14.88,8.62,20.65Z" style="fill:#f7bfc4;"/><path d="M558.38,250.47c.47,3.09,2.13,5.79,4.37,7.75,2.24,1.96,5.13,3.22,8.23,3.23.78,0,1.57-.08,2.35-.26,1.34-.3,2.19-1.63,1.9-2.97-.3-1.35-1.63-2.19-2.97-1.9h0s-1.27.14-1.27.14c-1.69,0-3.51-.73-4.95-2-1.44-1.26-2.46-2.99-2.72-4.74h0s-.09-1.19-.09-1.19c-.05-3.76,2.8-7.8,6.49-9.27,1.4-.57,2.92-.85,4.48-.85,3.04,0,6.23,1.08,8.72,2.95.91.68,2.16.66,3.05-.05.89-.71,1.18-1.93.72-2.96-3.82-8.51-7.5-17.53-7.48-25.95,0-2.57.33-5.08,1.08-7.55h0c.65-2.19,1.68-4.05,3.04-4.93.89-.59,1.87-.85,3.04-.86,2.3-.03,5.28,1.19,7.74,2.77,6.7,4.26,12.38,10.17,16.38,17.03.56.96,1.68,1.43,2.76,1.17,1.07-.27,1.85-1.22,1.89-2.32.13-3.57.33-6.93,1.48-9.69.55-1.33,1.41-2.6,2.43-3.52,1.02-.93,2.15-1.49,3.33-1.64l.62-.04c2.23-.05,4.85,1.64,6.39,3.96,1.75,2.57,2.61,5.98,3.43,9.62.31,1.34,1.65,2.18,2.99,1.88,1.34-.31,2.18-1.65,1.88-2.99-.85-3.64-1.74-7.68-4.15-11.3-2.29-3.35-6.02-6.11-10.53-6.16l-1.23.08c-2.38.3-4.44,1.42-6.07,2.9-1.63,1.49-2.87,3.34-3.69,5.31-.59,1.45-.94,2.91-1.2,4.36-3.89-5.04-8.64-9.43-14.02-12.85-2.94-1.85-6.55-3.52-10.42-3.55-1.96,0-4.01.49-5.82,1.7-2.86,1.95-4.21,4.95-5.04,7.62h0c-.91,2.98-1.3,6.01-1.3,9,.02,7.56,2.42,14.93,5.27,21.84-1.72-.5-3.49-.81-5.29-.81-2.15,0-4.32.38-6.37,1.22-5.55,2.31-9.54,7.79-9.59,13.89,0,.65.05,1.3.15,1.95h0Z" style="fill:#f2e3d2;"/><path d="M795.02,193.02c1.37.17,2.61-.79,2.79-2.16h0c.81-6.4,3.07-12.66,7.26-17.05,3.26-3.45,8.03-5.7,12.53-5.68,1.19,0,2.37.15,3.52.47,2.72.75,5.09,2.58,6.79,5.01,1.7,2.43,2.68,5.43,2.68,8.31,0,1.72-.34,3.4-1.06,4.93-.58,1.25-.04,2.73,1.21,3.31,1.25.58,2.73.04,3.31-1.21,1.04-2.25,1.52-4.65,1.52-7.04,0-3.99-1.31-7.91-3.57-11.17-2.27-3.24-5.54-5.85-9.55-6.96-1.6-.44-3.23-.65-4.85-.65-6.12.02-12,2.88-16.15,7.23-5.19,5.48-7.68,12.75-8.59,19.86-.17,1.37.79,2.62,2.16,2.79Z" style="fill:#f2e3d2;"/><polygon points="912.98 234.29 912.98 234.29 912.98 234.29 912.98 234.29" style="fill:#f2e3d2;"/><path d="M889.18,249.99c1.37.17,2.61-.81,2.78-2.17h0c.74-6.52,6.58-12.46,13.09-13.31l1.05-.08c.63,0,1.02.12,1.22.26.26.14.7.73,1.1,1.67h0c1.36,3.01,2.11,6.3,2.19,9.6.03,1.07.74,2.01,1.76,2.32,1.02.32,2.14-.06,2.76-.93,4-5.56,9.39-10.15,15.52-13.21,3.38-1.69,7.09-2.85,10.52-2.85,1.38,0,2.71.18,4,.57,1.84.56,3.63,1.78,4.9,3.33,1.28,1.55,2,3.36,1.99,5.05,0,.49-.06.98-.18,1.47-.38,1.5-1.28,2.85-2.62,4.14-1.33,1.28-3.06,2.44-4.84,3.5-3.85,2.28-7.84,4.32-11.95,6.09-1.27.54-1.85,2.01-1.31,3.28.55,1.27,2.01,1.85,3.28,1.3,4.31-1.85,8.5-3.99,12.53-6.38,1.92-1.15,3.96-2.48,5.75-4.19,1.77-1.7,3.32-3.84,4-6.51h0c.23-.9.33-1.8.33-2.69,0-3.09-1.26-5.94-3.13-8.22-1.89-2.28-4.42-4.05-7.3-4.93-1.81-.55-3.64-.79-5.45-.79-4.53,0-8.9,1.46-12.75,3.37-5.1,2.54-9.71,6.02-13.58,10.19-.44-1.91-1.07-3.78-1.87-5.57-.54-1.15-1.26-2.68-2.93-3.8h0c-1.32-.86-2.74-1.06-3.94-1.07-.62,0-1.2.06-1.74.13-8.9,1.29-16.21,8.72-17.35,17.65-.17,1.37.81,2.61,2.17,2.78Z" style="fill:#f2e3d2;"/><path d="M625.26,362.81c-1.46-.93-2.66-2.62-3.96-4.68-1.32-2.03-2.73-4.43-5.16-6.28-2.15-1.62-4.72-2.33-7.22-2.32-4.85.03-9.69,2.52-12.3,6.86-1.47,2.48-2.12,5.26-2.12,8,0,4.35,1.59,8.65,4.35,12.02.88,1.06,2.45,1.22,3.51.34,1.06-.88,1.22-2.45.34-3.51h0c-2.02-2.44-3.22-5.74-3.21-8.85,0-1.97.46-3.84,1.42-5.46,1.52-2.64,4.92-4.45,8.01-4.42,1.58,0,3.03.43,4.22,1.32,1.44,1.06,2.62,2.87,3.96,4.98,1.34,2.07,2.84,4.46,5.44,6.17,1.15.75,2.7.43,3.45-.73.75-1.15.43-2.7-.73-3.45Z" style="fill:#f2e3d2;"/><polygon points="444.56 354.2 444.56 354.19 444.56 354.19 444.56 354.2" style="fill:#f2e3d2;"/><path d="M433.32,399.92c2,2.19,4.47,3.91,6.83,5.26,1.2.68,2.72.26,3.4-.93.68-1.2.26-2.72-.93-3.4h0c-2.05-1.17-4.14-2.66-5.6-4.28-1.48-1.64-2.26-3.27-2.26-4.86l.06-.75v-.02c.21-1.38,1.04-2.63,2.37-3.65,1.32-1.01,3.11-1.69,4.81-1.83l1.15-.05c3.26-.01,6.79,1.21,10.43,2.57,1.07.4,2.28.01,2.93-.93.65-.94.57-2.21-.19-3.06-5.04-5.68-7.84-13.38-7.84-21.02,0-2.54.31-5.07.93-7.51h0c.26-1.03.65-2.05,1.11-2.73.47-.7.87-.98,1.28-1.08l.37-.04c.63-.04,1.83.48,3.02,1.29,6.83,4.54,12.17,11.39,14.91,19.13.46,1.3,1.89,1.98,3.19,1.52,1.3-.46,1.98-1.89,1.52-3.19-3.12-8.77-9.1-16.45-16.85-21.61-1.47-.95-3.32-2.09-5.78-2.13-.51,0-1.04.06-1.56.19-1.97.48-3.38,1.82-4.26,3.18-.9,1.38-1.42,2.87-1.77,4.23-.74,2.87-1.09,5.82-1.09,8.76,0,6.31,1.65,12.6,4.73,18.11-1.63-.37-3.3-.65-5.06-.66-.53,0-1.06.02-1.59.07-2.64.24-5.23,1.21-7.38,2.83-2.13,1.61-3.85,3.96-4.29,6.88-.08.53-.12,1.04-.12,1.52,0,3.28,1.58,6.05,3.55,8.22Z" style="fill:#f2e3d2;"/><path d="M429.88,390.18s0,0,0,0c0,0,0-.01,0-.02v.02Z" style="fill:#f2e3d2;"/><path d="M1043.38,427.61c1.29.48,2.73-.18,3.21-1.48h0c1.99-5.41,5.72-10.2,10.47-13.47,1.32-.92,2.59-1.56,3.69-1.71l.6-.04c1.17,0,2.43.49,3.57,1.42,1.14.92,2.11,2.26,2.64,3.63.74,1.89.99,4.04.99,6.36,0,1.56-.11,3.19-.23,4.85-.08,1.07.54,2.07,1.54,2.48,1,.41,2.14.13,2.84-.68,3.62-4.24,7.25-8.26,11.69-10,1.31-.53,2.81-.81,4.29-.81,1.61,0,3.18.33,4.46.96,1.29.63,2.27,1.51,2.92,2.69.52.96.77,2.03.77,3.19.02,2.39-1.16,5.16-2.94,7.11-2.71,3.03-6.85,5-11.2,6.94-1.26.57-1.82,2.04-1.25,3.3.56,1.26,2.04,1.82,3.3,1.25,4.35-1.97,9.18-4.1,12.86-8.15,2.53-2.82,4.21-6.55,4.23-10.46,0-1.89-.42-3.82-1.39-5.59h0c-1.2-2.18-3.05-3.77-5.11-4.77-2.07-1-4.36-1.46-6.64-1.46-2.1,0-4.2.39-6.14,1.16-3.62,1.46-6.49,3.83-9.05,6.4-.1-2.18-.43-4.4-1.29-6.6-.87-2.19-2.29-4.17-4.14-5.68-1.84-1.49-4.15-2.53-6.72-2.54l-1.3.09c-2.36.34-4.25,1.47-5.82,2.54-5.61,3.87-9.96,9.46-12.32,15.85-.48,1.29.18,2.73,1.48,3.21Z" style="fill:#f2e3d2;"/><path d="M883.7,397c1.37.11,2.58-.91,2.69-2.28h0c.07-.83.4-1.68,1-2.62.59-.94,1.43-1.92,2.33-2.92,1.53-1.71,3.12-3.39,4.75-4.6,1.64-1.22,3.24-1.95,4.92-2.05h.38c2.83-.06,5.96,2.08,7.8,4.97,1.97,3.05,2.9,6.97,3.8,11.09.29,1.35,1.63,2.2,2.97,1.9,1.35-.3,2.2-1.63,1.9-2.97-.92-4.13-1.89-8.65-4.47-12.72h0c-2.55-3.93-6.81-7.23-12-7.28l-.68.02c-2.97.18-5.5,1.45-7.61,3.03-2.12,1.59-3.89,3.51-5.47,5.27-.93,1.04-1.95,2.19-2.83,3.57-.87,1.37-1.61,3-1.76,4.89-.11,1.37.91,2.58,2.28,2.69Z" style="fill:#f2e3d2;"/><path d="M1217.63,1033.68c-3.7,3.76-6.56,8.29-8.46,13.19-.62-.73-1.29-1.41-2.04-2-2.51-1.99-5.66-3.2-8.95-3.21-.89,0-1.8.09-2.69.29-3.25.71-5.98,2.65-7.91,5.14-1.92,2.5-3.09,5.6-3.09,8.83,0,1,.12,2.01.36,3,.33,1.34,1.67,2.16,3.01,1.83,1.34-.33,2.16-1.68,1.83-3.01h0c-.14-.6-.22-1.21-.22-1.82,0-2,.76-4.11,2.06-5.79,1.3-1.69,3.08-2.9,5.01-3.31.54-.12,1.08-.17,1.63-.17,2.03,0,4.16.79,5.86,2.13,1.7,1.34,2.9,3.18,3.28,5.15.22,1.17,1.24,2.01,2.43,2.02s2.22-.82,2.46-1.99c1.3-6.29,4.47-12.22,8.98-16.79,1.8-1.84,3.76-3.24,5.62-3.51l.82-.06c1.71,0,3.46.85,5.01,2.42,1.53,1.55,2.74,3.75,3.26,5.88,1.26,4.89.41,10.62,1.07,16.75.11,1,.82,1.83,1.78,2.11.96.28,2-.04,2.64-.82,2.68-3.3,6.83-5.49,11.06-5.85l.68-.03c.57,0,.9.1,1.01.18.16.06.56.58.87,1.48.48,1.33.71,2.76.71,4.21,0,3.6-1.49,7.25-4.05,9.65-1,.94-1.05,2.52-.11,3.53.94,1,2.52,1.05,3.53.11,3.65-3.45,5.61-8.36,5.62-13.29,0-1.99-.32-3.99-1.01-5.9-.47-1.26-1.18-2.92-2.97-4.05-1.26-.76-2.55-.9-3.6-.9l-1.11.05c-3.75.33-7.29,1.76-10.34,3.92-.03-3.9.1-8.05-.94-12.35-.76-3.02-2.34-5.91-4.55-8.17-2.2-2.24-5.16-3.9-8.56-3.91-.53,0-1.06.04-1.59.12-3.62.59-6.3,2.82-8.4,4.93Z" style="fill:#f2e3d2;"/><path d="M1258.06,1194.88c-.99,0-2.01.15-3,.49-2.26.77-3.93,2.26-5.25,3.7-3.63,4.03-5.74,9.32-5.88,14.74-.03,1.38,1.06,2.52,2.43,2.56,1.38.03,2.52-1.06,2.56-2.43h0c.1-4.2,1.78-8.4,4.6-11.52,1.01-1.13,2.1-1.98,3.13-2.32.45-.15.92-.23,1.41-.23,1.73-.03,3.88,1.03,5.31,2.59,1.93,2.05,3.16,5.04,4.39,8.27.36.93,1.23,1.56,2.23,1.6.99.04,1.92-.51,2.35-1.41,2.3-4.75,5-9.3,8.08-13.58,1.47-2.06,3.23-4.1,5.09-5.53,1.87-1.45,3.75-2.26,5.63-2.25l.75.04c1.9.21,3.6,1.31,4.95,3.06,1.34,1.74,2.22,4.09,2.38,6.31l.04,1.15c.02,4.3-1.74,8.85-3.65,13.47-.52,1.27.09,2.73,1.36,3.26,1.28.52,2.73-.09,3.26-1.36,1.89-4.64,4.01-9.74,4.03-15.36,0-.5-.02-1-.05-1.51-.24-3.22-1.42-6.4-3.39-8.99-1.96-2.57-4.84-4.58-8.35-4.98l-1.31-.07c-3.35,0-6.27,1.43-8.69,3.3-2.42,1.89-4.42,4.26-6.08,6.56-2.21,3.08-4.17,6.33-6,9.64-.86-1.74-1.91-3.46-3.34-5.01-2.26-2.39-5.42-4.15-8.96-4.18Z" style="fill:#f2e3d2;"/><path d="M1030.27,1342.1c-1.97-1.19-4.23-1.84-6.49-1.85-2.63,0-5.33.83-7.46,2.71-2.52,2.25-3.65,5.46-3.65,8.57,0,3.66,1.55,7.43,4.83,9.69,1.14.78,2.69.48,3.47-.66.77-1.14.48-2.69-.66-3.47h0c-1.65-1.1-2.66-3.29-2.65-5.57,0-1.93.71-3.73,1.98-4.84,1.06-.95,2.54-1.45,4.14-1.45,2.56-.01,5.12,1.34,6.12,3.34.51.98,1.59,1.5,2.67,1.3,1.08-.2,1.9-1.09,2.02-2.18.7-6.59,1.66-13.06,5.26-17.41,1.96-2.44,5.53-4.11,8.57-4.08,2.06.01,3.75.66,4.99,2.04.96,1.08,1.55,2.46,1.93,4.21.58,2.6.58,5.87.99,9.17.21,1.65.54,3.33,1.2,4.96.65,1.62,1.66,3.2,3.15,4.48,1.04.9,2.62.78,3.52-.27.9-1.05.78-2.62-.27-3.52-1.07-.92-1.7-2.09-2.15-3.68-.68-2.37-.73-5.55-1.05-8.86-.35-3.28-1-6.88-3.58-9.81-2.32-2.61-5.58-3.72-8.72-3.71-4.68.03-9.37,2.22-12.43,5.91-3.6,4.44-4.96,9.79-5.73,14.97Z" style="fill:#f2e3d2;"/><path d="M1149.11,1310.02c-1.95-1.46-4.32-2.44-6.88-2.45-1.05,0-2.13.17-3.18.55-2.85,1.04-4.71,3.1-6.24,4.84-3.85,4.43-7.25,9.25-10.12,14.37-.67,1.2-.24,2.72.96,3.4,1.2.67,2.72.24,3.4-.96h0c2.7-4.82,5.9-9.37,9.53-13.54,1.41-1.64,2.79-2.95,4.15-3.42.49-.18.99-.26,1.5-.26,1.23,0,2.63.51,3.89,1.45,1.25.94,2.32,2.28,2.91,3.67.87,2.02,1.17,4.31,1.17,6.8,0,1.96-.19,4.04-.4,6.14-.14,1.37.87,2.59,2.24,2.73s2.59-.87,2.73-2.24c.21-2.11.42-4.34.42-6.63,0-2.88-.34-5.87-1.57-8.76-.97-2.26-2.55-4.23-4.51-5.7Z" style="fill:#f2e3d2;"/><path d="M1014.12,1026.27c0-1.7-.13-3.43-.62-5.14-.49-1.71-1.38-3.41-2.81-4.82-2.07-2.07-4.82-2.96-7.45-2.95-4.38.03-8.69,2.18-11.44,5.68-3.06,3.99-4.17,8.69-4.78,13.21-.56-.7-1.18-1.45-2.01-2.22-2.02-1.81-4.6-2.65-7.14-2.65-2.74,0-5.53.97-7.6,3.04-2.04,2.06-2.98,4.82-2.98,7.53,0,2.57.85,5.18,2.7,7.2.93,1.01,2.51,1.08,3.52.15,1.01-.93,1.08-2.51.15-3.53h0c-.88-.95-1.39-2.36-1.39-3.83,0-1.55.57-3.05,1.54-4.02.97-.99,2.49-1.57,4.06-1.57,1.45,0,2.84.49,3.79,1.36.68.61,1.44,1.65,2.42,2.77.97,1.1,2.28,2.39,4.29,2.94.71.19,1.47.05,2.07-.36.6-.42.99-1.09,1.06-1.81.51-5.76,1.26-11.37,4.25-15.17,1.67-2.22,4.86-3.78,7.49-3.74,1.6.01,2.91.48,3.93,1.49.77.78,1.23,1.62,1.54,2.68.31,1.05.43,2.33.43,3.76,0,2.41-.36,5.23-.36,8.18,0,1.85.15,3.77.71,5.68.23.78.82,1.4,1.6,1.66s1.62.13,2.28-.36c3.1-2.29,6.44-4.24,9.94-5.83,1.29-.6,2.46-.99,3.29-.98l.39.03c.69.1,1.13.34,1.6.77.69.65,1.35,1.92,1.74,3.52.41,1.59.58,3.45.58,5.13,0,1.38,1.13,2.49,2.51,2.48,1.38,0,2.49-1.13,2.48-2.51-.02-2.65-.32-5.69-1.42-8.44-.55-1.37-1.32-2.69-2.45-3.78-1.12-1.09-2.65-1.89-4.38-2.12l-1.06-.07c-2.14.01-3.9.78-5.35,1.42-2.59,1.17-5.04,2.59-7.44,4.12,0-.24-.04-.47-.04-.72,0-2.51.35-5.32.36-8.18Z" style="fill:#f2e3d2;"/><path d="M1079.99,1069.39c-2.01-1.64-4.52-2.77-7.26-2.78-.93,0-1.87.13-2.8.42-2.18.66-3.89,1.99-5.16,3.49-1.92,2.27-3.08,4.91-4.29,7.28-.28.56-.56,1.11-.85,1.63-.56-.82-1.21-1.57-1.96-2.17-1.89-1.5-4.28-2.42-6.81-2.44-1.12,0-2.27.19-3.37.64-3.08,1.24-5.29,3.59-6.8,6.19-1.52,2.61-2.43,5.53-3,8.29-.28,1.35.6,2.67,1.95,2.94,1.35.27,2.67-.6,2.94-1.95h0c.48-2.39,1.28-4.83,2.41-6.77,1.15-1.95,2.56-3.36,4.36-4.08.45-.18.95-.28,1.5-.28,1.24-.01,2.69.53,3.7,1.34,1.03.83,1.51,1.79,1.49,2.5l-.17.82c-.43,1.06-.08,2.29.85,2.96.93.67,2.2.62,3.08-.12,3.26-2.81,4.75-6.63,6.35-9.69.78-1.54,1.57-2.89,2.41-3.87.86-.99,1.71-1.61,2.84-1.97.45-.14.89-.2,1.34-.2,1.32,0,2.8.58,4.1,1.65,1.3,1.06,2.38,2.58,2.91,4.12.57,1.62.79,3.36.8,5.22,0,2.6-.46,5.41-.96,8.25-.24,1.36.67,2.65,2.03,2.89,1.36.24,2.65-.67,2.89-2.03.5-2.87,1.03-5.94,1.03-9.11,0-2.26-.27-4.59-1.07-6.87-.87-2.47-2.45-4.67-4.46-6.33Z" style="fill:#f2e3d2;"/><path d="M318.52,1299.59c.14,1.17,1.08,2.09,2.26,2.19,1.18.1,2.27-.64,2.61-1.77,2.31-7.74,6.99-14.8,13.21-19.96.46-.38.9-.71,1.26-.9l.71-.24h.07s.52.25.52.25l.94.9c3.38,3.81,5.26,9,5.25,14.14,0,2.12-.32,4.22-.95,6.22-.42,1.31.3,2.72,1.62,3.14,1.31.42,2.71-.31,3.14-1.62.8-2.51,1.19-5.13,1.19-7.74,0-6.33-2.26-12.65-6.5-17.44-.47-.53-1.03-1.12-1.77-1.65-.73-.53-1.67-1.01-2.81-1.15l-.69-.04c-1.2,0-2.23.38-3.06.83-.84.45-1.52.98-2.09,1.45-5.44,4.51-9.75,10.28-12.65,16.71-.51-.6-1.06-1.16-1.65-1.66-2.28-1.89-5.18-3.06-8.23-3.07-1.1,0-2.21.16-3.29.49-5.33,1.72-8.49,6.94-8.52,12.16,0,1.81.4,3.65,1.29,5.34.64,1.22,2.15,1.68,3.37,1.04,1.22-.64,1.68-2.15,1.04-3.37h0c-.48-.9-.71-1.93-.71-3.01-.03-3.2,2.18-6.59,5.02-7.4.58-.18,1.19-.27,1.81-.27,1.72,0,3.6.71,5.03,1.92,1.44,1.2,2.4,2.82,2.6,4.5Z" style="fill:#f2e3d2;"/><path d="M199.77,1221.17c1.12-.69,2.53-1.1,3.81-1.09,1.27,0,2.35.37,3.13,1.06.77.69,1.2,1.48,1.5,2.63.29,1.14.38,2.6.38,4.22,0,1.1-.04,2.27-.04,3.49.02,3.2.19,6.9,2.71,9.99.46.56,1.15.89,1.87.9.72.01,1.42-.29,1.9-.83,3.52-3.96,7.11-7.65,11.31-8.82.73-.21,1.52-.32,2.33-.32,1.73,0,3.52.5,4.82,1.36,1.31.87,2.11,1.94,2.35,3.28l.08.96c0,1.04-.26,2.3-.58,3.69-.31,1.34.53,2.68,1.88,2.99,1.34.31,2.68-.53,2.99-1.88.31-1.4.7-3,.7-4.8,0-.58-.04-1.19-.15-1.82-.51-2.91-2.33-5.18-4.55-6.6-2.23-1.44-4.88-2.15-7.54-2.16-1.25,0-2.5.16-3.71.51-4.65,1.37-8.12,4.41-11.12,7.55-.24-1.15-.32-2.49-.31-4,0-1.11.04-2.28.04-3.49,0-1.77-.07-3.61-.53-5.45-.46-1.83-1.39-3.7-3.05-5.15-1.86-1.63-4.2-2.3-6.43-2.3-2.27,0-4.5.66-6.42,1.82-3.65,2.26-5.85,5.74-7.62,8.95-1.94,3.54-3.49,7.26-4.84,11.06-2.48-2.32-5.81-3.66-9.17-3.68-2.1,0-4.26.55-6.15,1.8-3.22,2.16-4.65,5.82-4.66,9.28,0,1.93.44,3.87,1.38,5.6.94,1.72,2.42,3.24,4.4,4.11,1.26.56,2.73-.01,3.29-1.27.56-1.26-.01-2.73-1.27-3.29h0c-.88-.39-1.54-1.04-2.04-1.94-.49-.89-.77-2.04-.77-3.2,0-2.14.92-4.16,2.42-5.12.99-.65,2.14-.97,3.4-.97,3.11-.04,6.58,2.13,7.63,4.97.39,1,1.37,1.63,2.44,1.58,1.07-.05,1.98-.78,2.28-1.81,1.45-5.11,3.48-10.05,6.03-14.71,1.63-2.99,3.48-5.66,5.85-7.09Z" style="fill:#f2e3d2;"/><path d="M130.2,1091.34c-2.05-1.98-4.75-3.39-7.78-3.4-.94,0-1.9.14-2.84.44-2.09.67-3.73,1.96-5.02,3.4-1.29,1.45-2.27,3.06-3.09,4.58-1.91,3.57-3.43,7.34-4.57,11.22-2.12-2.14-4.56-3.95-7.28-5.26-1.63-.77-3.53-1.4-5.6-1.41-1.6,0-3.39.44-4.84,1.66-2.4,2.09-2.79,4.97-2.83,7.23v.07s0,.07,0,.07h0s0,.01,0,.01c.01,5.92,2.64,11.68,7.11,15.57,1.04.9,2.61.79,3.52-.25.9-1.04.79-2.62-.25-3.52h0c-3.35-2.89-5.4-7.39-5.39-11.81h0v-.05c0-1.68.46-3.07,1.06-3.5.38-.32.85-.48,1.63-.49.97,0,2.29.36,3.44.92,3.45,1.66,6.46,4.28,8.58,7.48.56.84,1.57,1.26,2.56,1.07.99-.19,1.77-.96,1.97-1.95,1.04-5.12,2.83-10.09,5.3-14.7.72-1.34,1.52-2.63,2.41-3.61.89-.99,1.81-1.66,2.82-1.98l1.32-.21c1.39,0,2.98.7,4.31,2,1.34,1.28,2.34,3.08,2.65,4.81.15.79.21,1.58.21,2.4.02,3.71-1.49,7.79-3.13,11.88-.51,1.28.11,2.73,1.39,3.24,1.28.51,2.73-.11,3.24-1.39,1.63-4.13,3.47-8.73,3.49-13.73,0-1.09-.09-2.2-.3-3.31-.55-2.87-2.04-5.49-4.09-7.48Z" style="fill:#f2e3d2;"/><path d="M376.13,1042.35l-.68.22c-.41,0-1.11-.2-1.82-.68-.71-.47-1.4-1.18-1.84-1.86-.75-1.13-1.44-2.59-2.36-4.11-.92-1.5-2.1-3.11-3.99-4.24-1.41-.85-2.98-1.23-4.49-1.22-2.28,0-4.43.81-6.25,2.04-1.82,1.24-3.36,2.94-4.34,4.97-1.38,2.87-1.76,5.91-1.76,8.81,0,2.2.22,4.34.43,6.36.14,1.37,1.37,2.36,2.74,2.22,1.37-.15,2.36-1.37,2.22-2.74h0c-.21-1.99-.4-3.97-.4-5.83,0-2.47.33-4.71,1.27-6.64.55-1.14,1.51-2.24,2.64-3.01,1.13-.77,2.39-1.19,3.45-1.18.71,0,1.33.16,1.94.52.83.49,1.54,1.34,2.28,2.55.74,1.21,1.45,2.71,2.44,4.24.83,1.27,1.94,2.4,3.25,3.28,1.31.87,2.84,1.51,4.59,1.53,1.22,0,2.54-.37,3.63-1.18,1.11-.81,1.35-2.38.54-3.49-.82-1.11-2.38-1.35-3.49-.54Z" style="fill:#f2e3d2;"/><path d="M321.4,989.68c.7-1.19.31-2.72-.87-3.42-1.62-.88-3.07-3.43-4.68-6.21-.83-1.37-1.73-2.78-3.02-3.99-1.27-1.2-3.08-2.16-5.19-2.21h-.24c-2.22,0-4.09.97-5.51,2.18-1.43,1.21-2.52,2.69-3.38,4.1-3.01,4.97-4.84,10.63-5.29,16.43-.11,1.37.92,2.57,2.29,2.68,1.37.11,2.57-.92,2.68-2.29h0c.39-5.01,1.97-9.94,4.58-14.23.67-1.11,1.5-2.18,2.33-2.87.85-.71,1.59-1.01,2.3-1.01h.07s.02,0,.02,0c.8.04,1.27.27,1.96.88,1.01.91,2.09,2.8,3.31,4.89,1.25,2.06,2.69,4.4,5.24,5.94,1.18.7,2.71.31,3.42-.88Z" style="fill:#f2e3d2;"/><polygon points="307.64 973.86 307.64 973.86 307.65 973.86 307.64 973.86" style="fill:#f2e3d2;"/><path d="M172.6,903.89c.99-.96,1.01-2.54.05-3.53-3.61-3.65-6.15-8.96-10.49-13.44-3.21-3.23-7.68-5.7-12.46-5.74-2.02,0-4.09.49-5.96,1.63-4.26,2.65-5.98,7.5-5.99,11.95l.02.79h0c.23,4.62,2,8.69,3.57,12.4.66,1.55,1.32,3.1,1.99,4.66-1.62-.3-3.3-.5-4.97-.51-1.92,0-3.84.26-5.67.98-1.82.71-3.52,1.94-4.77,3.7-1.4,1.95-1.97,4.24-1.96,6.44,0,2.49.7,4.92,1.86,7.04,2.15,3.88,5.42,6.56,8.33,9,1.06.88,2.63.74,3.51-.32.88-1.06.74-2.63-.32-3.51h0c-2.93-2.43-5.64-4.78-7.16-7.57-.78-1.41-1.24-3.11-1.24-4.63,0-1.37.34-2.57,1.03-3.53.69-.95,1.5-1.54,2.56-1.97,1.05-.42,2.36-.63,3.83-.63,2.65,0,5.74.68,8.5,1.53.93.28,1.94,0,2.59-.72.65-.72.82-1.75.44-2.65-1.32-3.09-2.63-6.18-3.95-9.27-1.59-3.7-3.03-7.25-3.17-10.68h0s-.01-.56-.01-.56c-.01-3.21,1.35-6.37,3.6-7.69,1.02-.62,2.13-.9,3.36-.9,2.9-.04,6.51,1.78,8.9,4.25,3.62,3.63,6.16,8.93,10.48,13.42.96.99,2.54,1.01,3.53.05Z" style="fill:#f2e3d2;"/><path d="M252.69,877.32c-1.64-1.59-3.59-3.36-6.27-4.3-1.17-.4-2.36-.59-3.53-.59-3.02,0-5.82,1.21-8.11,3-2.29,1.8-4.12,4.21-5.18,6.94-1.14,2.95-1.51,5.99-1.51,8.95,0,3.29.45,6.51.88,9.55.19,1.36,1.46,2.31,2.82,2.12,1.36-.2,2.31-1.46,2.12-2.82h0c-.43-3.02-.84-6.02-.83-8.84,0-2.56.32-4.95,1.18-7.15.7-1.82,2.02-3.58,3.6-4.81,1.59-1.24,3.39-1.94,5.03-1.94.64,0,1.27.1,1.9.32,1.46.49,2.92,1.68,4.41,3.15,3.6,3.54,6.72,7.58,9.21,11.97.68,1.2,2.2,1.62,3.4.94,1.2-.68,1.62-2.2.94-3.4-2.73-4.8-6.12-9.21-10.06-13.07Z" style="fill:#f2e3d2;"/><path d="M307.37,613.79c1.27.54,2.73-.05,3.27-1.32s-.05-2.73-1.32-3.27h0c-4.33-1.79-7.3-6.85-7.27-11.73,0-1.79.38-3.53,1.18-5.07h0c1.97-3.93,6.7-6.48,11.31-6.46,2.1,0,4.14.51,5.87,1.56,2.04,1.18,4.04,3.39,7.07,5,.9.46,1.99.34,2.76-.31.77-.65,1.08-1.7.77-2.67-.73-2.27-1.34-4.79-1.33-6.86.02-2.06.5-3.44,1.63-4.43.76-.66,1.77-1,3-1,1.45,0,3.13.54,4.38,1.43,2.47,1.72,4.3,4.73,6.13,8,.68,1.2,2.2,1.62,3.4.95,1.2-.68,1.62-2.2.95-3.4-1.86-3.27-3.93-7.01-7.6-9.62-2.1-1.47-4.64-2.33-7.25-2.34-2.16,0-4.44.64-6.26,2.22-2.56,2.21-3.38,5.36-3.36,8.2,0,.63.14,1.24.21,1.87-.6-.44-1.23-.89-1.91-1.31-2.6-1.57-5.54-2.28-8.45-2.28-6.32.02-12.7,3.28-15.75,9.17-1.19,2.32-1.73,4.85-1.73,7.35.03,6.74,3.81,13.51,10.31,16.32Z" style="fill:#f2e3d2;"/><polygon points="298.78 590.12 298.79 590.12 298.79 590.12 298.78 590.12" style="fill:#f2e3d2;"/><path d="M852.14,772.59h-.39c-2.51.1-4.8,1.07-6.66,2.49-1.86,1.43-3.34,3.33-4.29,5.45-1.12,2.49-1.53,5.14-1.53,7.71,0,1.72.19,3.41.48,5.03.25,1.35,1.55,2.25,2.9,2.01,1.36-.25,2.25-1.55,2.01-2.9h0c-.25-1.38-.4-2.78-.4-4.14,0-2.04.33-3.97,1.1-5.66.61-1.37,1.61-2.64,2.78-3.54,1.18-.9,2.49-1.42,3.8-1.46h.22c2.02,0,3.86.95,5.73,2.71,1.84,1.74,3.54,4.2,5,6.61.47.77,1.31,1.22,2.21,1.19.9-.03,1.71-.54,2.13-1.33,2.01-3.84,3.99-7.47,6.78-9.96,2.04-1.86,4.81-3.09,7.24-3.07.78,0,1.53.12,2.26.36,1.44.49,2.7,1.49,3.72,2.86,1.02,1.37,1.76,3.1,2.12,4.84.27,1.29.38,2.63.38,4.02,0,2.47-.36,5.08-.74,7.76-.19,1.36.76,2.63,2.12,2.82,1.37.19,2.63-.76,2.82-2.12.37-2.68.78-5.52.78-8.45,0-1.65-.13-3.34-.48-5.03-.5-2.41-1.5-4.77-3-6.8-1.5-2.02-3.55-3.73-6.12-4.61-1.28-.43-2.58-.63-3.86-.63-4.01.02-7.74,1.82-10.57,4.35-2.51,2.27-4.31,4.98-5.85,7.69-1.04-1.44-2.17-2.85-3.49-4.11-2.37-2.26-5.44-4.09-9.16-4.09Z" style="fill:#f2e3d2;"/><path d="M779.23,801.83c-2.68-3.12-6.31-5.5-10.64-6.1-.55-.08-1.1-.11-1.64-.11-3.62.01-6.99,1.57-9.52,3.89-2.52,2.33-4.32,5.52-4.33,9.1,0,1.33.26,2.69.82,3.99.54,1.27,2.01,1.85,3.28,1.31,1.27-.54,1.85-2.01,1.31-3.28h0c-.29-.68-.42-1.34-.42-2.02-.02-1.8,1-3.85,2.72-5.43,1.71-1.58,4.02-2.58,6.15-2.57l.95.07c2.9.4,5.47,2.01,7.55,4.42,2.07,2.4,3.58,5.57,4.22,8.74.28,1.35,1.6,2.22,2.95,1.94,1.35-.28,2.22-1.6,1.94-2.95-.82-3.98-2.64-7.86-5.33-10.99Z" style="fill:#f2e3d2;"/><path d="M614.03,763.03l-.49.02c-2.64.17-4.9,1.26-6.81,2.68.12-1.38.28-2.75.28-4.13,0-7.44-1.74-14.87-5.15-21.51-.36-.64-.88-1.88-2.48-2.68-.61-.28-1.25-.4-1.82-.4-1.48.03-2.48.59-3.24,1.01-5.64,3.27-9.28,8.44-11.76,14.09-1.68,3.83-2.85,7.91-3.81,11.94-1.13-1.45-2.34-2.85-3.64-4.15-1.18-1.17-2.54-2.35-4.13-3.29-1.58-.93-3.44-1.62-5.5-1.62l-1.02.06c-2.86.32-5.13,2.03-6.56,4.12-1.44,2.11-2.2,4.65-2.2,7.22,0,.71.06,1.43.19,2.13h0c1.01,5.44,4.58,9.43,7.63,12.91.91,1.03,2.49,1.13,3.52.22,1.03-.91,1.13-2.49.22-3.52h0c-3.07-3.43-5.84-6.85-6.45-10.49h0s-.11-1.25-.11-1.25c0-1.55.5-3.21,1.32-4.39.84-1.19,1.84-1.86,3.01-2l.46-.03c.92,0,1.92.32,2.98.94,1.06.62,2.14,1.53,3.13,2.51,2.4,2.4,4.49,5.12,6.2,8.06.52.9,1.54,1.38,2.56,1.21,1.03-.17,1.83-.95,2.04-1.97,1.14-5.67,2.51-11.56,4.74-16.6,2.24-5.06,5.26-9.21,9.7-11.78l.45-.22.15.25c3.04,5.9,4.6,12.57,4.6,19.22,0,3.8-.51,7.59-1.53,11.24-.33,1.17.23,2.41,1.33,2.93,1.1.52,2.41.18,3.11-.82,1.26-1.8,2.69-3.55,4.21-4.8,1.53-1.26,3.07-2,4.72-2.1h.18c.91-.02,2.07.49,2.93,1.34.88.84,1.35,1.93,1.32,2.58l-.38,1.01c-.91,1.04-.8,2.61.24,3.52,1.04.91,2.62.8,3.52-.24,1.09-1.24,1.62-2.82,1.61-4.29-.02-2.44-1.2-4.56-2.83-6.16-1.64-1.58-3.86-2.74-6.41-2.76Z" style="fill:#f2e3d2;"/><path d="M1188.24,686.06c1.36.19,2.63-.75,2.82-2.12h0c.51-3.64,2.54-7.07,5.42-9.56,2.88-2.5,6.56-4.02,10.24-4.01h.07s.95.08.95.08l.3.11.21.29.38.94c1.42,4.15,2.15,8.54,2.15,12.93,0,1.2-.06,2.4-.16,3.6-.12,1.37.89,2.58,2.26,2.71,1.37.12,2.58-.89,2.71-2.26.12-1.34.18-2.69.18-4.04,0-4.94-.81-9.87-2.42-14.55-.35-.95-.8-2.42-2.3-3.59-1.55-1.14-3.13-1.17-4.23-1.19h.02-.11c-5.04,0-9.81,2.03-13.51,5.23-3.69,3.2-6.38,7.64-7.09,12.63-.19,1.36.75,2.63,2.12,2.82Z" style="fill:#f2e3d2;"/><path d="M936.55,436.29l1.06.13c1.39.36,2.49,1.31,3.53,2.92,1.02,1.59,1.83,3.72,2.49,5.8.42,1.31,1.82,2.04,3.13,1.62,1.31-.42,2.04-1.82,1.62-3.13-.72-2.23-1.61-4.73-3.04-6.97-1.41-2.22-3.51-4.3-6.5-5.07-.77-.2-1.54-.29-2.3-.29-3.7.03-6.91,2.01-9.1,4.58-2.55,3.06-3.71,6.63-4.79,9.8-.44,1.31.26,2.72,1.57,3.16,1.31.44,2.72-.26,3.16-1.57h0c1.06-3.18,2.12-6.12,3.88-8.19,1.39-1.68,3.55-2.84,5.28-2.8Z" style="fill:#f2e3d2;"/><path d="M703.87,125.5c.73,3.7,2.65,6.68,4.31,9.36.73,1.17,2.27,1.52,3.44.79,1.17-.73,1.52-2.27.79-3.44h0c-1.68-2.66-3.17-5.17-3.63-7.65h0c-.1-.51-.15-1.03-.15-1.55,0-1.96.71-3.69,1.87-4.55.71-.54,1.63-.83,2.7-.83,1.3,0,2.76.46,3.86,1.25,2.13,1.48,3.66,4.14,4.71,7.1.42,1.16,1.62,1.84,2.83,1.6,1.21-.24,2.06-1.33,2.01-2.56-.02-.51-.04-1.01-.04-1.52,0-6.94,2.03-13.92,5.79-19.76h0c.77-1.2,1.7-2.36,2.66-3.13.97-.78,1.84-1.13,2.69-1.13h.12c.69.04,1.19.23,1.72.62.78.57,1.55,1.72,2.06,3.19.52,1.46.79,3.19.79,4.74v.06s0,.07,0,.07c-.04,5.05-1.1,10.1-3.11,14.73-.55,1.26.03,2.73,1.3,3.28,1.27.55,2.73-.03,3.28-1.3,2.27-5.25,3.47-10.95,3.52-16.68v-.08s0,0,0,0v-.09c0-2.79-.58-5.82-1.97-8.44-.7-1.31-1.62-2.52-2.86-3.46-1.23-.94-2.81-1.57-4.53-1.62h-.32c-2.32,0-4.31.99-5.84,2.25-1.55,1.26-2.75,2.81-3.71,4.31h0c-3.06,4.77-5.06,10.16-5.98,15.74-.67-.72-1.41-1.4-2.25-2-1.96-1.38-4.32-2.15-6.74-2.16-1.96,0-4.01.54-5.72,1.85-2.78,2.14-3.84,5.46-3.84,8.52,0,.84.08,1.68.24,2.5h0Z" style="fill:#f2e3d2;"/><path d="M1258.64,891.63c1.35.28,2.67-.59,2.95-1.94.69-3.37,1.21-7.14,1.22-10.87,0-3.61-.47-7.21-1.87-10.41-1.38-3.19-3.83-6-7.44-7.46-1.67-.69-3.42-.99-5.14-.99-4.31.02-8.42,1.84-11.61,4.51-4.35,3.69-7,8.56-9.43,13.06-.65,1.21-.2,2.73,1.01,3.38,1.21.65,2.73.2,3.38-1.01h0c2.4-4.47,4.83-8.74,8.26-11.61,2.38-2.03,5.55-3.35,8.39-3.33,1.13,0,2.22.2,3.24.62,2.31.97,3.74,2.56,4.76,4.85,1,2.28,1.45,5.24,1.45,8.41,0,3.27-.47,6.74-1.11,9.86-.28,1.35.59,2.67,1.94,2.95Z" style="fill:#f2e3d2;"/><polygon points="824.7 558.16 824.7 558.15 824.7 558.15 824.7 558.16" style="fill:#f2e3d2;"/><path d="M831.59,562.5c-1.01-1.43-1.71-3.25-1.96-5.05h0c-.11-.77-.16-1.56-.16-2.36,0-3.05.75-6.33,1.57-9.7.32-1.34-.5-2.69-1.84-3.01-1.34-.32-2.68.5-3.01,1.84h0c-.81,3.39-1.7,7.02-1.71,10.87,0,1,.06,2.02.21,3.06.36,2.55,1.3,5.07,2.82,7.22,1.51,2.15,3.66,3.96,6.38,4.8,1.11.34,2.24.5,3.35.5,5.39-.06,10-3.45,13.01-7.36,3.48-4.65,5.3-9.79,8.14-13.69.8-1.12.55-2.68-.57-3.48-1.12-.8-2.68-.55-3.48.57-3.34,4.7-5.16,9.8-8.07,13.59-2.29,3.07-5.99,5.45-9.03,5.39-.64,0-1.26-.09-1.88-.28-1.47-.45-2.75-1.47-3.77-2.91Z" style="fill:#f2e3d2;"/><path d="M492.91,427.82c1.01,3.61,2.59,7.62,4.95,10.93,1.18,1.65,2.57,3.13,4.26,4.25,1.67,1.11,3.69,1.83,5.87,1.82.65,0,1.31-.06,1.98-.19,3.01-.57,5.38-2.43,6.97-4.7,1.6-2.28,2.51-5.01,2.66-7.77l.02-.97c-.02-4.91-1.86-9.3-3.48-13.26-.53-1.27-1.98-1.88-3.26-1.35-1.27.52-1.88,1.98-1.35,3.26,1.64,3.94,3.12,7.77,3.1,11.36l-.02.71c-.09,1.8-.74,3.72-1.76,5.16-1.03,1.45-2.33,2.39-3.81,2.66l-1.06.1c-1.12,0-2.1-.33-3.12-1-1.52-.99-3.03-2.84-4.26-5.09-1.24-2.24-2.22-4.86-2.89-7.27-.37-1.33-1.75-2.1-3.07-1.73-1.33.37-2.1,1.74-1.73,3.07h0Z" style="fill:#f2e3d2;"/></svg>